<?xml version="1.0" encoding="UTF-8" standalone="no"?>
<!-- Created with Inkscape (http://www.inkscape.org/) -->

<svg
   width="512"
   height="512"
   viewBox="0 0 512 512"
   version="1.1"
   id="svg5"
   inkscape:version="1.2.1 (9c6d41e, 2022-07-14)"
   xml:space="preserve"
   sodipodi:docname="dead mook.svg"
   xmlns:inkscape="http://www.inkscape.org/namespaces/inkscape"
   xmlns:sodipodi="http://sodipodi.sourceforge.net/DTD/sodipodi-0.dtd"
   xmlns:xlink="http://www.w3.org/1999/xlink"
   xmlns="http://www.w3.org/2000/svg"
   xmlns:svg="http://www.w3.org/2000/svg"><sodipodi:namedview
     id="namedview7"
     pagecolor="#505050"
     bordercolor="#eeeeee"
     borderopacity="1"
     inkscape:showpageshadow="false"
     inkscape:pageopacity="0"
     inkscape:pagecheckerboard="false"
     inkscape:deskcolor="#57594a"
     inkscape:document-units="px"
     showgrid="true"
     inkscape:zoom="0.62381279"
     inkscape:cx="416.79171"
     inkscape:cy="286.94506"
     inkscape:window-width="1341"
     inkscape:window-height="768"
     inkscape:window-x="41"
     inkscape:window-y="97"
     inkscape:window-maximized="0"
     inkscape:current-layer="g522477"><inkscape:grid
       type="xygrid"
       id="grid129"
       spacingx="2.1166666"
       spacingy="2.1166666"
       empspacing="8"
       dotted="false" /></sodipodi:namedview><defs
     id="defs2"><inkscape:path-effect
       effect="powerstroke"
       id="path-effect522815"
       is_visible="true"
       lpeversion="1"
       offset_points="0,3"
       not_jump="false"
       sort_points="true"
       interpolator_type="CubicBezierJohan"
       interpolator_beta="0.2"
       start_linecap_type="zerowidth"
       linejoin_type="extrp_arc"
       miter_limit="4"
       scale_width="1"
       end_linecap_type="zerowidth" /><inkscape:path-effect
       effect="skeletal"
       id="path-effect522652"
       is_visible="true"
       lpeversion="1"
       pattern="M 0,18.867925 C 0,8.4528302 8.4528302,0 18.867925,0 c 10.415094,0 18.867924,8.4528302 18.867924,18.867925 0,10.415094 -8.45283,18.867924 -18.867924,18.867924 C 8.4528302,37.735849 0,29.283019 0,18.867925 Z"
       copytype="single_stretched"
       prop_scale="0.05"
       scale_y_rel="false"
       spacing="0"
       normal_offset="0"
       tang_offset="0"
       prop_units="false"
       vertical_pattern="false"
       hide_knot="false"
       fuse_tolerance="0" /><color-profile
       name="sRGB-IEC61966-2.1"
       xlink:href="file:///System/Library/ColorSync/Profiles/sRGB%20Profile.icc"
       id="color-profile523872" /><filter
       inkscape:collect="always"
       style="color-interpolation-filters:sRGB"
       id="filter522467"
       x="-0.2676676"
       y="-0.21166829"
       width="1.5353352"
       height="1.4233366"><feGaussianBlur
         inkscape:collect="always"
         stdDeviation="13.508785"
         id="feGaussianBlur522469" /></filter><filter
       inkscape:collect="always"
       style="color-interpolation-filters:sRGB"
       id="filter522471"
       x="-0.097255143"
       y="-0.068323344"
       width="1.1945103"
       height="1.1366467"><feGaussianBlur
         inkscape:collect="always"
         stdDeviation="13.508785"
         id="feGaussianBlur522473" /></filter><inkscape:path-effect
       effect="fill_between_many"
       method="bsplinespiro"
       linkedpaths="#path522813,0,1"
       id="path-effect522817" /><inkscape:path-effect
       effect="fill_between_many"
       method="originald"
       linkedpaths="#path522813,0,1"
       id="path-effect522875" /></defs><g
     inkscape:label="Layer 1"
     inkscape:groupmode="layer"
     id="layer1"><g
       id="g521840"
       transform="translate(-546.23729,11.322034)"
       inkscape:label="shadow"><g
         id="g522477"
         transform="translate(560,20)"><g
           id="g523829"
           transform="translate(-13.76271,-31.322034)"
           style="fill:#800000"
           inkscape:export-filename="DeadGanger.png"
           inkscape:export-xdpi="96"
           inkscape:export-ydpi="96"><ellipse
             style="display:inline;fill:#800000;stroke:none;stroke-width:2;stroke-linejoin:round"
             id="path522531"
             cx="363.09604"
             cy="21.090818"
             rx="89.574402"
             ry="55.039692"
             inkscape:label="path522531"
             transform="rotate(29.564102)" /><ellipse
             style="fill:#800000;fill-opacity:1;stroke:none;stroke-width:2;stroke-linejoin:round"
             id="path523819"
             cx="475.24405"
             cy="-120.00157"
             rx="25.499756"
             ry="23.418142"
             transform="rotate(43.269697)" /><ellipse
             style="fill:#800000;fill-opacity:1;stroke:none;stroke-width:2;stroke-linejoin:round"
             id="path523821"
             cx="448.70349"
             cy="-41.420689"
             rx="23.938547"
             ry="15.612096"
             transform="rotate(43.269697)" /><ellipse
             style="fill:#800000;fill-opacity:1;stroke:none;stroke-width:2;stroke-linejoin:round"
             id="path523823"
             cx="402.3876"
             cy="-14.880131"
             rx="15.091692"
             ry="9.88766"
             transform="rotate(43.269697)" /></g><path
           style="fill:#333333;fill-opacity:1;filter:url(#filter522467)"
           d="m 160.16949,192 c 2.11835,-4.72337 2.11835,4.72337 0,0 z m 0,-6 c 2.11835,-4.72337 2.11835,4.72337 0,0 z m 2,-3.54181 C 179.82038,151.65216 187.54348,103.04366 209.77592,82.114784 190.68394,114.03574 185.34224,152.75266 162.16949,182.45819 Z M 260.66949,132 c 1.46402,-3.85256 1.70348,4.90882 0,0 z m -47.5,-8.65022 c -9.55677,-30.873157 32.9525,-12.96979 0,0 z m 25,0.65022 c 2.11835,-4.72337 2.11835,4.72337 0,0 z m -8,-13 c -4.93516,-16.739758 14.80157,10.58748 0,0 z M 218.67595,75.250002 c -5.2625,-40.663824 90.91221,-20.820037 26.08425,-18.39546 -11.34254,-0.561017 -24.12985,6.314252 -26.08425,18.39546 z m -10.50646,-2.821429 c -3.73932,-14.134653 8.56268,-0.199906 0,0 z m 4,-4.306126 c -1.3225,-8.500638 5.69323,1.19852 0,0 z m 18.563,-14.908544 c 17.93765,-19.581076 2.23972,6.019087 0,0 z m 9.437,-5.213901 c 2.11835,-4.723379 2.11835,4.723379 0,0 z m 5,-2 c 7.41389,-9.685365 7.46827,6.816588 0,0 z m 31,-2 c 3.46406,-11.498541 9.55243,7.441641 0,0 z"
           id="path521848" /><path
           style="fill:#333333;fill-opacity:1;filter:url(#filter522471)"
           d="m 126.67038,501.78049 c -52.609067,-44.38743 -25.91742,-115.41406 42.34141,-114.21681 71.45332,-17.38 25.46038,-90.46927 -2.15503,-126.62401 -32.60682,-30.80292 27.03008,-85.94872 33.32122,-70.23682 -60.56243,9.94877 7.17696,-101.827617 35.50181,-52.58938 21.08376,6.09834 76.82556,4.3965 31.07916,29.86065 -23.78403,17.19849 43.31859,35.88126 40.96868,68.62358 28.89271,40.26862 30.27171,93.77135 59.42716,132.70425 21.55957,26.68968 100.43482,7.5158 46.74681,49.72922 -65.19456,47.23936 -90.43102,-31.61486 -122.11938,-72.49061 -26.08146,-14.73955 -23.15388,-100.60921 -38.94486,-84.9076 -14.79399,17.91161 18.38505,56.85014 -14.58466,48.10049 6.81855,33.60389 53.5011,93.66813 -19.26512,105.83124 -51.63908,6.52093 -84.45161,38.49466 -83.77985,85.46626 z M 200.16949,420 c -3.79991,-6.3812 -3.82629,6.5541 0,0 z m 202,0 c -2.11835,-4.72337 -2.11835,4.72337 0,0 z m -158,-26 c -2.11835,-4.72337 -2.11835,4.72337 0,0 z m 3.5,0 c -1.46402,-3.85256 -1.70348,4.90882 0,0 z m -20,-28 c -2.80829,-6.27688 -3.52087,5.12711 0,0 z m 1.5,-6 c -2.90093,-5.81953 -3.06257,5.74788 0,0 z m 23,-8 c -3.04817,-7.1143 -4.0934,5.84249 0,0 z m -0.65201,-84.01195 c 3.66101,-23.75771 -15.94023,30.1003 0,0 z m -10.37695,1.05101 c 1.54647,-6.43218 -6.57183,6.98457 0,0 z m 63.02896,-22.82345 c -24.44739,-45.33723 -54.36894,-6.44491 0,0 z m -54,-10.21561 c -2.11835,-4.72337 -2.11835,4.72337 0,0 z m -86,-16 c -2.11835,-4.72337 -2.11835,4.72337 0,0 z m 60,-6.46482 c -4.24002,-11.36198 -8.3438,9.70791 0,0 z M 215.15592,210 c 17.44859,-8.70269 -21.19163,2.63219 0,0 z m 19.01357,-2 c -2.11835,-4.72337 -2.11835,4.72337 0,0 z m -4,-2 c -2.11835,-4.72337 -2.11835,4.72337 0,0 z m -4,-1.83948 c -5.39416,-9.74201 -9.63195,4.54038 0,0 z m -20,-6.16052 c -2.11835,-4.72337 -2.11835,4.72337 0,0 z m -6,-2 c -3.79991,-6.3812 -3.82629,6.5541 0,0 z m -3.27083,-38.60417 c -2.29742,-4.40655 -2.57933,3.05903 0,0 z m 5.27083,-7.28642 c -6.17608,-8.37964 -15.48438,10.16043 0,0 z m 8,-13.10941 c -1.70062,-7.94503 -2.42377,6.92449 0,0 z m -4.26849,-4.08586 c -0.87374,-10.25229 -5.77929,6.56807 0,0 z m -21.73151,299.64488 c -0.0177,-6.80449 3.89581,4.09381 0,0 z M 258.48262,342.27 c -27.94909,-21.16379 16.78001,1.40241 0,0 z m -13.06313,-18.76583 c -10.17329,-12.18534 9.76011,3.80445 0,0 z m 11.88302,-22.12523 c -1.27809,-10.17529 7.1134,8.40849 0,0 z M 254.16949,290.5 c 1.65682,-6.29334 2.40057,5.54334 0,0 z m 4,-14.5 c 2.11835,-4.72337 2.11835,4.72337 0,0 z m -92,-78 c 2.55893,-11.85613 3.11907,9.40254 0,0 z m 4,-3.25945 c 1.33032,-11.54088 7.76702,6.14547 0,0 z m 96,-17.57388 c -15.60801,-12.66526 9.81649,-1.40923 0,0 z m 9.60699,-1.74846 c -3.25455,-10.31537 6.54179,5.06661 0,0 z m 13.03249,-42.11206 C 269.38551,116.3607 194.88361,99.077889 255.4055,92.491573 c 16.89208,-7.925995 23.49909,53.245507 21.25987,-1.816039 -1.82752,-56.274242 32.06367,32.506446 37.09968,-14.359169 -25.19462,-17.247019 -39.10092,-55.221557 9.85205,-48.205349 65.40354,15.487766 -23.44909,79.598394 -34.80813,105.195134 z m -24.63948,-18.18371 c 0.96148,-11.03808 -7.65985,4.68165 0,0 z m 120,-3.12244 c 2.11835,-4.72337 2.11835,4.72337 0,0 z"
           id="path521842" /></g></g><g
       id="g521850"
       transform="translate(-22.843167,6.3453229)"
       inkscape:label="dude"><path
         id="rect522706"
         style="fill:#845f63;stroke:#ff0000;stroke-width:2;stroke-linejoin:round;fill-opacity:1"
         transform="rotate(41.957817,19.695752,26.61435)"
         d="m 227.86796,-133.9235 4.12141,-24.5814 42.71649,12.41506 12.17948,22.27579 -2.3759,38.078584 6.69188,19.153611 -69.78919,38.655573 -17.26798,-26.13847 38.39573,-48.206298 z"
         sodipodi:nodetypes="cccccccccc"
         inkscape:label="skin" /><path
         style="fill:#ae7e82;fill-opacity:1"
         d="m 158.75189,182.75 c 0.40626,-3.72462 1.81461,-8.47233 3.48549,-11.75 1.54207,-3.025 3.37144,-7.4633 4.06526,-9.86289 0.89986,-3.11222 1.43573,-3.86613 1.86935,-2.62999 0.60391,1.72162 11.9975,-15.83006 11.9975,-18.48201 0,-0.62088 0.85673,-2.79303 1.90384,-4.82699 1.04711,-2.03397 3.14178,-6.62312 4.65482,-10.19812 1.51304,-3.575 3.7712,-8.75 5.01813,-11.5 1.24693,-2.75 3.69083,-9.275 5.4309,-14.5 6.71233,-20.155518 20.18711,-41.788454 22.25835,-35.734445 0.23229,0.678946 1.61051,-1.099389 3.06272,-3.951855 5.42265,-10.65132 22.29665,-17.209119 35.45932,-13.780678 7.73176,2.013867 11.06943,1.864586 13.05163,-0.583748 1.59203,-1.966416 1.65666,-1.82095 1.57211,3.53818 -0.11914,7.55096 -10.79642,11.634855 -18.90764,7.231878 -2.49845,-1.356222 -9.58074,-2.802704 -15.50418,-3.166561 -8.14118,-0.500084 -17,12.942271 -17,25.795761 0,2.53528 -0.63759,3.98465 -2.24956,5.11372 -3.1017,2.17251 -4.75044,-0.16213 -4.75044,-6.7267 0,-10.91479 -8.39464,1.92205 -15.50196,23.705158 -1.96333,6.01739 -3.98638,11.44278 -4.49566,12.05642 -1.15885,1.39633 -9.87035,22.77852 -11.20518,27.50287 -0.5439,1.925 -1.79499,4.4 -2.7802,5.5 -0.98521,1.1 -2.80701,4.025 -4.04843,6.5 -1.24143,2.475 -3.37809,5.97229 -4.74815,7.77177 -2.31183,3.03643 -2.37447,3.40052 -0.87093,5.06191 1.51371,1.67264 1.35328,2.04868 -2.44388,5.72824 -5.6819,5.50594 -6.38358,7.05966 -4.49199,9.9466 1.4588,2.22641 1.39536,2.56504 -1.01782,5.43294 -3.82012,4.53997 -4.58672,3.8984 -3.8134,-3.19146 z m 107.17364,-57.87131 c -3.70917,-0.47758 -8.42751,-1.77066 -10.48519,-2.87351 -2.05768,-1.10285 -4.8729,-2.00815 -6.25604,-2.01177 -1.38315,-0.004 -3.86481,-0.90066 -5.51481,-1.99341 -1.65,-1.09275 -3.9574,-1.98979 -5.12756,-1.99341 -2.32272,-0.007 -4.86366,-2.40276 -4.01134,-3.78184 0.2933,-0.47457 -0.81071,-0.66561 -2.45336,-0.42452 -1.90434,0.2795 -3.65917,-0.17029 -4.84253,-1.24122 -2.05911,-1.86347 -3.41428,-7.83885 -1.64597,-7.2576 0.59442,0.19538 1.22456,1.3325 1.40031,2.52692 0.39981,2.71714 2.18045,2.87289 2.18045,0.19072 0,-1.3541 0.87021,-2.16404 2.75,-2.55956 6.85433,-1.44218 8.2242,-4.73667 2.89534,-6.96321 -1.92972,-0.80629 -3.80222,-1.9411 -4.16112,-2.52181 -0.35889,-0.5807 -1.57102,-0.76431 -2.69361,-0.40801 -1.45945,0.46321 -1.82577,0.29945 -1.28552,-0.57469 1.21408,-1.96444 9.22849,-0.59068 12.05718,2.06672 2.76234,2.59509 3.17013,6.59093 0.96953,9.50038 -2.81715,3.7246 0.84866,8.07807 7.51219,8.92139 2.85593,0.36143 9.46175,2.64481 17.71977,6.12504 1.79507,0.75651 5.17007,1.66623 7.5,2.0216 4.59223,0.70044 7.03458,2.08135 6.16621,3.48641 -0.63291,1.02407 -3.27841,0.9751 -12.67393,-0.23462 z"
         id="path521864"
         inkscape:label="Rimlight" /><path
         style="fill:#800000;stroke:none;stroke-width:2;stroke-linejoin:round"
         d="m 283.44124,43.059265 -12.9075,2.670518 -6.6763,7.121382 -23.36703,-4.22832 -14.02022,7.566468 -8.67919,13.575135 -4.6734,0.667629 -6.45376,8.234098 -19.13871,45.621355 1.11272,20.47398 22.47686,-54.968175 29.15316,-4.005778 31.15604,-14.242764 5.34104,-20.25143 2.67052,-2.225432 z"
         id="path522933"
         inkscape:label="shirt-shade" /><path
         style="fill:#52282c"
         d="m 312.56631,234.17533 c -2.67189,-2.23354 -3.96543,-4.74234 -4.78237,-9.27533 -0.64661,-3.58785 -4.0238,-7.44316 -8.72325,-9.95823 -4.49725,-2.40685 -6.3672,-5.91152 -3.95093,-7.40486 1.80877,-1.11788 -1.25942,-7.02547 -6.10571,-11.75611 -2.65901,-2.59556 -4.83456,-5.20746 -4.83456,-5.80423 0,-0.59677 -1.34792,-2.52313 -2.99537,-4.2808 -1.64746,-1.75768 -2.99746,-3.67408 -3,-4.25868 -0.0195,-4.48166 -5.72813,-6.34195 -7.58281,-2.47104 -1.057,2.20605 -2.254,4.01617 -2.66,4.02248 -0.406,0.006 -1.0288,1.82887 -1.38399,4.05014 -0.69626,4.35413 -2.16262,4.72566 -4.02603,1.02007 -0.63151,-1.25583 -3.27346,-4.44104 -5.87101,-7.07824 -3.90964,-3.96933 -4.78564,-5.54265 -5.08774,-9.13771 -0.20071,-2.38853 -0.6461,-6.40332 -0.98976,-8.92174 -0.54714,-4.00959 -0.30293,-4.9263 1.96401,-7.37237 2.51806,-2.71702 3.52009,-2.85115 7.8827,-1.05514 1.44575,0.59519 1.75,0.18027 1.75,-2.38655 0,-2.77247 0.317,-3.10699 2.94424,-3.10699 9.78988,0 9.09077,-7.6345 -0.8976,-9.80205 -2.50065,-0.54266 -11.74664,-3.44938 -20.54664,-6.45938 -21.56527,-7.3763 -31.08724,-8.30862 -26.61669,-2.60611 1.02083,1.30215 2.17545,3.83004 2.56583,5.61754 0.39037,1.7875 1.12402,3.25 1.63032,3.25 0.50629,0 0.92054,0.98055 0.92054,2.179 0,1.2004 1.52566,3.57644 3.39714,5.29065 3.50835,3.21352 6.33851,10.17088 5.27004,12.95528 -1.19121,3.10424 -5.27616,1.64457 -12.5949,-4.50051 -10.14255,-8.51605 -14.32612,-6.8119 -5.43574,2.21421 6.96063,7.06688 -0.081,9.86137 -24.84891,9.86137 -5.85447,0 -11.78763,1.58206 -11.78763,3.14314 0,0.5696 1.49563,0.63029 3.75,0.15217 5.1108,-1.08391 25.06174,-0.70417 27.65319,0.52635 1.15325,0.5476 5.13431,2.36311 8.84681,4.03445 5.93679,2.67271 8.69915,5.14389 5.75,5.14389 -2.12049,0 -0.86798,1.99503 1.64913,2.62679 4.89999,1.22981 11.27407,8.37321 7.47145,8.37321 -4.04902,0 -3.95503,1.32116 0.2802,3.93868 3.05772,1.88978 5.22509,4.76878 4.29227,5.7016 -0.32431,0.32431 -10.59714,-3.81344 -21.69305,-8.73765 -2.475,-1.09837 -6.975,-2.14479 -10,-2.32537 -3.025,-0.18059 -7.62173,-0.92346 -10.21495,-1.65083 -7.42837,-2.08357 -18.44718,1.44313 -29.84373,9.55183 -5.68527,4.04509 -6.27323,-0.69241 -1.20033,-9.67157 2.71223,-4.80072 2.85579,-5.49244 1.55271,-7.4812 -1.76295,-2.6906 -0.98287,-4.34205 4.61191,-9.76357 3.82248,-3.7041 3.96612,-4.04617 2.41762,-5.75725 -1.5427,-1.70466 -1.44734,-2.06676 1.51523,-5.75328 1.73885,-2.16376 3.16154,-4.41944 3.16154,-5.01262 0,-0.99682 2.69551,-5.39683 6.58608,-10.75077 0.88407,-1.2166 1.97828,-3.6916 2.43158,-5.5 1.17547,-4.68943 7.80279,-21.8619 9.36462,-24.26527 0.72296,-1.1125 1.87164,-3.82273 2.55263,-6.02273 6.66677,-21.537588 16.06509,-38.882378 16.06509,-29.648428 0,6.859 1.4246,9.31769 4.68138,8.07947 1.50758,-0.57318 6.02101,-1.04215 10.02984,-1.04215 4.00883,0 7.28878,-0.41586 7.28878,-0.92412 0,-1.82456 -7.88775,-5.03105 -10.66275,-4.33457 -2.33533,0.58613 -2.56937,0.43347 -1.88642,-1.23052 0.42882,-1.04483 1.13784,-3.39508 1.5756,-5.22279 0.43776,-1.82771 1.5109,-4.11315 2.38475,-5.07874 0.87385,-0.9656 1.58882,-2.98005 1.58882,-4.476551 0,-2.986303 2.55125,-8.621599 3.90324,-8.621599 1.81176,0 3.48318,3.331896 3.26874,6.516078 -0.26115,3.877652 1.371,5.369512 3.5216,3.218911 1.20816,-1.208158 1.2713,-1.932103 0.32302,-3.703971 -0.64825,-1.211271 -0.85557,-2.50127 -0.46072,-2.866664 0.39486,-0.365395 0.91882,-0.101854 1.16436,0.585646 0.24553,0.6875 1.47883,1.25 2.74065,1.25 1.26182,0 2.82196,0.635887 3.46697,1.413081 1.95982,2.361432 10.83656,3.110092 13.05639,1.101171 2.70597,-2.448866 5.09503,-1.519039 6.3868,2.485748 1.51075,4.68367 3.81266,4.47007 5.38846,-0.5 0.69752,-2.2 1.6999,-4.9 2.22749,-6 0.5276,-1.1 1.08386,-3.797978 1.23614,-5.995507 0.24576,-3.546694 0.60426,-4.052177 3.19147,-4.5 2.44129,-0.422565 3.20008,-1.316474 4.6725,-5.504493 1.41314,-4.019434 1.77308,-4.465725 1.83539,-2.27568 0.0545,1.914272 0.89518,3.149713 2.8275,4.154986 1.5125,0.786866 3.86287,2.621762 5.22304,4.077547 2.98816,3.198213 10.21703,6.543147 14.14066,6.543147 2.27341,0 3.1452,0.666096 4.25364,3.25 0.7668,1.7875 3.02284,4.800775 5.01342,6.696167 5.94088,5.656783 2.92636,13.106263 -7.13076,17.621543 -1.7875,0.80252 -3.25,2.11653 -3.25,2.92003 0,1.4228 -4.79509,4.512258 -7.00339,4.512258 -0.6065,0 -2.54134,-1.012498 -4.29966,-2.249998 -3.39738,-2.39106 -3.51342,-2.7945 -4.20005,-14.60168 -0.35959,-6.18348 -0.82468,-7.74882 -2.92689,-9.851042 -1.37466,-1.374655 -2.7935,-3.466401 -3.15297,-4.648325 -0.75004,-2.466033 -3.32616,-5.648953 -4.57203,-5.648953 -1.52152,0 -0.89035,3.211186 1.71271,8.713596 2.14034,4.524304 2.39288,5.927124 1.54759,8.596494 -0.58138,1.83595 -0.8657,10.71142 -0.66986,20.910538 0.27653,14.40148 0.0741,17.94154 -1.0809,18.90009 -1.2057,1.00064 -1.07499,1.55014 0.86214,3.62438 4.79979,5.13953 9.68353,6.14192 9.768,2.0049 0.008,-0.4125 0.91531,-0.75 2.01531,-0.75 1.1,0 2,-0.65603 2,-1.45785 0,-0.80181 2.1375,-2.67658 4.75,-4.16616 5.59889,-3.19233 9.36751,-6.37684 8.74276,-7.3877 -0.24508,-0.39655 0.52114,-1.56864 1.70272,-2.60464 1.475,-1.29329 1.92321,-1.41353 1.4301,-0.38365 -0.39501,0.825 0.0726,0.42713 1.03916,-0.88416 1.92108,-2.60627 2.70157,-5.46027 1.24748,-4.56159 -0.50172,0.31008 -0.91222,0.0872 -0.91222,-0.49523 0,-0.58246 0.62741,-1.05902 1.39424,-1.05902 0.76684,0 2.83943,-1.35 4.60576,-2.999998 4.45018,-4.15709 5.45195,-3.74829 2.77032,1.130508 -1.24867,2.27178 -3.07038,5.66593 -4.04822,7.54255 -0.97785,1.87662 -2.56354,3.73039 -3.52375,4.11949 -4.05076,1.64145 -14.17206,10.82318 -14.73136,13.36382 -0.37911,1.72215 -1.4433,2.87185 -3.02588,3.26905 -1.34261,0.33698 -2.44111,1.19744 -2.44111,1.91213 0,3.02517 -3.17614,11.66249 -4.28874,11.66299 -4.82224,0.002 -19.20426,21.34066 -15.80107,23.44396 0.5994,0.37044 1.08981,1.54698 1.08981,2.61452 0,2.39264 0.49166,2.42576 2.83505,0.19098 1.00928,-0.9625 2.79927,-2.40463 3.97776,-3.20473 1.17849,-0.8001 1.74429,-1.70097 1.25733,-2.00192 -0.48696,-0.30096 0.16022,-2.57133 1.43818,-5.04527 1.27796,-2.47395 2.80025,-5.51058 3.38287,-6.74808 0.58262,-1.2375 1.23304,-2.25 1.44539,-2.25 1.00055,0 -0.79029,5.72659 -2.34542,7.5 -0.96461,1.1 -1.99491,3.35 -2.28955,5 -0.29464,1.65 -1.30576,5.15079 -2.24692,7.77953 -1.46379,4.08848 -1.51193,5.02829 -0.33295,6.5 3.93454,4.91144 4.85764,8.63067 2.37826,9.5821 -2.7009,1.03643 1.55349,12.9481 5.9184,16.57065 0.86988,0.72193 1.5816,1.72573 1.5816,2.23066 0,0.50492 0.92651,2.17122 2.05892,3.70288 1.9362,2.61886 2.63993,7.13427 1.8072,11.59576 -0.25886,1.38691 0.53931,2.41227 2.72448,3.5 6.12625,3.04948 11.12567,7.88607 12.16938,11.77301 0.55609,2.07098 1.74363,5.45291 2.63897,7.51541 1.85657,4.27678 1.84269,4.30343 -1.00213,1.92533 z M 285.6186,131.65561 c 5.77623,-7.57303 1.61474,-14.08839 -9.62506,-15.06931 -12.69627,-1.10803 -25.19349,-7.46982 -28.88384,-14.70351 -6.6981,-13.129348 -28.77713,-16.697348 -33.49229,-5.41239 -4.80673,11.50413 -1.83452,25.84738 5.00062,24.13187 1.29133,-0.3241 3.63119,0.08 5.19967,0.89806 1.56849,0.81804 3.56037,1.49012 4.42642,1.49351 0.86605,0.003 6.03942,1.58116 11.49638,3.50616 5.45697,1.925 11.17534,3.5 12.70749,3.5 1.53216,0 4.40124,0.675 6.37574,1.5 2.21485,0.92542 6.77655,1.5 11.90887,1.5 4.57537,0 8.59697,0.45 8.93689,1 1.16269,1.88128 3.39787,1.00045 5.94911,-2.34439 z m 26.60733,-53.905608 c 2.37127,-2.84246 2.44675,-4.72654 0.19356,-4.83157 -1.05422,-0.0491 -0.44686,-0.65115 1.52762,-1.51414 4.30183,-1.88022 3.12125,-4.36122 -3.51067,-7.377638 -2.62182,-1.192494 -5.44195,-2.579178 -6.26695,-3.081519 -0.825,-0.502342 -3.525,-2.118208 -6,-3.590814 -2.475,-1.472606 -5.85,-3.908222 -7.5,-5.412481 -3.31172,-3.0192 -9.5,-4.909625 -9.5,-2.902104 0,1.678694 6.84456,12.769101 8.45286,13.696371 0.72871,0.420142 3.18539,3.126395 5.45929,6.013895 2.2739,2.8875 4.70339,5.25 5.39888,5.25 0.69548,0 2.82252,1.33171 4.72674,2.95936 4.20194,3.59163 4.64075,3.64107 7.01867,0.79064 z"
         id="path521856"
         inkscape:label="shirt" /><path
         style="fill:#232f4a"
         d="m 124.97628,493.33842 c -1.9422,-0.33195 -3.71776,-2.04672 -6.36737,-6.14936 -2.02078,-3.12898 -4.89055,-7.48906 -6.37726,-9.68906 -6.66005,-9.85539 -9.78439,-18.62023 -10.553,-29.60476 -0.40005,-5.71738 -1.57827,-14.41349 -2.618262,-19.32469 -2.661479,-12.56842 -2.20064,-14.10949 0.619173,-2.07055 1.288239,5.5 2.664859,14.65695 3.059179,20.34878 1.94986,28.14608 27.38321,55.37914 38.55649,41.28483 2.62857,-3.31575 2.1584,-12.29845 -1.00148,-19.13361 -2.60331,-5.63125 -2.99051,-18.03619 -0.62426,-20 0.91196,-0.75686 1.5,-2.94737 1.5,-5.58765 0,-3.47728 0.6477,-5.07684 3.25,-8.02621 1.7875,-2.0259 4.375,-5.74843 5.75,-8.27231 3.02042,-5.54412 4.61823,-5.99125 9.52079,-2.66428 6.0671,4.11724 12.88354,2.09782 24.14627,-7.15352 3.95279,-3.24687 7.63269,-5.98912 14.78478,-11.01759 2.17351,-1.52814 5.05172,-3.79094 6.39602,-5.02844 1.3443,-1.2375 2.98373,-2.25 3.64318,-2.25 0.65944,0 1.98455,-0.86804 2.94468,-1.92897 0.96013,-1.06094 4.74238,-3.38819 8.40499,-5.17169 3.66261,-1.78349 7.06703,-3.46042 7.56539,-3.72652 0.5082,-0.27135 0.63691,0.86215 0.29309,2.58124 -0.45596,2.2798 -0.20367,3.22211 0.98478,3.67816 3.2929,1.26361 5.04464,-0.33206 5.58013,-5.08298 0.49078,-4.35418 2.18064,-6.81044 3.93815,-5.72424 0.43876,0.27117 0.79775,-0.16038 0.79775,-0.95899 0,-3.12328 7.17335,-3.65433 9.68817,-0.71724 0.91772,1.07183 2.08321,1.69252 2.58998,1.37933 0.50676,-0.3132 0.42738,0.3536 -0.1764,1.48178 -0.82859,1.54823 -0.77846,2.37478 0.20442,3.37067 1.53237,1.55267 0.60931,6.44699 -1.1447,6.06945 -0.63881,-0.1375 -1.16147,0.2551 -1.16147,0.87244 0,0.73143 -0.58942,0.64433 -1.69196,-0.25 -1.14966,-0.93255 -1.45126,-0.9718 -0.94098,-0.12244 0.53115,0.8841 -0.0893,1.25 -2.11948,1.25 -1.57875,0 -3.83649,0.9 -5.01721,2 -2.20194,2.05143 -6.86808,2.84086 -5.70931,0.96592 1.09529,-1.77222 -10.06242,0.77653 -11.62108,2.65459 -0.62968,0.75872 -1.93149,1.37949 -2.89292,1.37949 -0.96142,0 -4.48661,2.73009 -7.83375,6.06686 -5.80717,5.78918 -6.328,6.07524 -11.37951,6.25 -5.62953,0.19475 -6.75406,0.91129 -6.77849,4.3192 -0.0395,5.51087 -21.48568,10.2905 -33.77939,7.52828 -4.92914,-1.1075 -4.84995,-1.15523 -11.13873,6.71312 -4.03378,5.04695 -5.09719,7.13895 -5.09719,10.02749 0,2.00752 -0.70889,4.66212 -1.57531,5.89911 -2.0433,2.91721 -1.47627,15.81504 0.97292,22.13058 5.67959,14.64549 -2.05674,24.05873 -17.59082,21.40378 z m 222.97913,-65.07918 c -3.13092,-0.44431 -7.51139,-5.18975 -8.38747,-9.08631 -1.90448,-8.47053 -7.40711,-22.45161 -9.65714,-24.53687 -1.3835,-1.28218 -2.82019,-3.71873 -3.19266,-5.41455 -0.37246,-1.69582 -1.39619,-3.67691 -2.27494,-4.40241 -1.56408,-1.29131 -10.27371,-14.32234 -10.27371,-15.37114 0,-0.29237 -0.88444,-1.48092 -1.96542,-2.64122 -1.08098,-1.16029 -1.75938,-2.443 -1.50756,-2.85046 0.37115,-0.60053 -13.09999,-14.75749 -19.94107,-20.95628 -5.04136,-4.56804 -8.67216,-9.56233 -8.21702,-11.30278 C 283.07559,329.64306 282.36486,327 281.27531,327 c -0.37412,0 -0.75306,0.96709 -0.8421,2.14908 -0.3125,4.14856 -2.13436,4.40478 -3.75419,0.52797 -2.05031,-4.90708 -3.50953,-4.64807 -3.50953,0.62295 0,2.365 -0.49258,4.79258 -1.09462,5.39462 -1.0313,1.0313 -0.67648,4.49043 1.80345,17.58191 0.40195,2.1219 -0.0914,3.34865 -2.09232,5.20308 -1.64287,1.52255 -2.49449,3.23768 -2.286,4.60387 0.19371,1.26931 -0.66026,3.2483 -2.04774,4.74541 -1.78866,1.93 -2.33521,3.57475 -2.19969,6.6196 0.26539,5.96289 0.14648,6.36513 -2.58308,8.73846 -1.375,1.19555 -2.5,2.76757 -2.5,3.49339 0,1.84822 -3.6576,1.65432 -4.38156,-0.23228 -0.392,-1.02155 -0.17225,-1.33796 0.64301,-0.92584 0.6812,0.34435 0.53566,0.0302 -0.32342,-0.69806 -3.64425,-3.08941 -3.16233,-8.01044 0.99187,-10.1283 2.98628,-1.52243 2.97346,-2.87111 -0.0421,-4.43112 -1.31329,-0.67939 -1.8253,-1.24189 -1.1378,-1.25 2.49272,-0.0294 5.25,-3.97612 5.25,-7.51474 0,-2.65455 0.42272,-3.50768 1.75,-3.5318 1.56478,-0.0284 1.58458,-0.16074 0.18713,-1.25 -0.85958,-0.67001 -2.41911,-2.6807 -3.46561,-4.4682 -2.21678,-3.78642 -3.36638,-4.02159 -5.79477,-1.18544 -2.04159,2.3844 -5.00046,2.20863 -5.48859,-0.32604 C 248.09827,349.39165 248.7152,349 251.09617,349 c 4.66137,0 3.88427,-2.72346 -1.42668,-5 -5.5985,-2.3998 -6.38608,-5.57641 -1.13849,-4.59196 4.56239,0.85591 6.76313,-1.50784 4.12151,-4.4268 C 251.66636,333.89156 250.32616,333 249.67427,333 c -0.65188,0 -3.61964,-1.34185 -6.59501,-2.98188 -2.97537,-1.64004 -6.08477,-3.00501 -6.90977,-3.03327 -2.01712,-0.0691 -4.94253,-2.65307 -8.47391,-7.48485 -1.60789,-2.2 -3.68612,-4.675 -4.61827,-5.5 -2.66552,-2.35912 -3.36553,-5.88713 -1.32357,-6.6707 1.24482,-0.47769 2.76557,0.56278 5.48667,3.75387 2.07049,2.4281 4.0652,4.11405 4.43269,3.74655 0.3675,-0.36749 -0.72048,-2.12126 -2.41772,-3.89726 -5.11599,-5.35339 -3.97685,-9.93246 2.4709,-9.93246 2.45985,0 2.66333,-4.87471 0.31097,-7.45 -2.35089,-2.57368 -0.38003,-13.95722 2.27319,-13.12977 6.18988,1.9304 5.79551,2.08049 4.49248,-1.70977 -0.65764,-1.91297 -1.7807,-4.18298 -2.49567,-5.04447 -2.23383,-2.6916 -1.52065,-13.82897 1.3342,-20.83553 0.52625,-1.29154 -0.37594,-2.13674 -3.98481,-3.73312 -5.25583,-2.3249 -5.47184,-4.11174 -0.67144,-5.55414 3.8369,-1.15289 3.89345,-1.52835 0.68429,-4.5432 -3.5292,-3.31552 -2.30959,-5.21142 3.5,-5.44078 0.93096,-0.0367 1.37438,-0.81794 1.16887,-2.05922 -0.18213,-1.1 -0.44385,-3.06591 -0.58162,-4.36868 -0.33542,-3.17197 -3.64493,-5.5065 -12.2824,-8.66398 -3.95734,-1.44663 -7.72494,-3.26859 -8.37245,-4.04879 C 216.45438,213.63835 214.63324,213 213.05491,213 c -2.33632,0 -3.197,-0.69697 -4.63078,-3.75 -1.51524,-3.22648 -2.31908,-3.8198 -5.75787,-4.25 -4.05351,-0.5071 -4.73899,-2.03221 -3.02437,-6.72891 2.6841,-7.35226 31.60894,-5.04834 32.23575,2.56765 0.0752,0.91369 0.45597,3.57438 0.84614,5.91263 0.70942,4.25137 0.70942,4.25137 -2.30116,3.64926 -1.82985,-0.36597 -3.2935,-0.14432 -3.73199,0.56516 -0.92955,1.50406 -0.55092,1.82788 2.63633,2.25471 1.44175,0.19308 3.23362,0.84549 3.98194,1.4498 0.74833,0.60432 2.8038,1.40724 4.56773,1.78427 13.39495,2.86312 21.1803,13.26605 24.77985,33.11129 3.44375,18.9863 5.8352,29.30355 9.02459,38.93414 1.82146,5.5 3.62039,12.7 3.99763,16 1.23415,10.79588 6.99444,20.35084 21.40149,35.5 4.96905,5.225 9.04693,9.76069 9.06197,10.07931 0.0912,1.93361 10.36704,18.34792 18.05557,28.84148 2.18447,2.98144 3.97865,6.35644 3.98707,7.5 0.0211,2.85856 1.08689,4.28737 4.03407,5.40788 2.08791,0.79383 2.80697,2.18802 4.28723,8.31256 6.29205,26.03331 7.28212,27.53383 17.55277,26.60252 4.30497,-0.39036 9.19028,-2.10403 18.71799,-6.56588 7.09095,-3.3207 14.56936,-6.31256 16.61869,-6.64858 2.04933,-0.33601 6.17358,-1.89841 9.16501,-3.47199 7.19223,-3.78333 11.1671,-4.65107 11.95075,-2.60891 0.84728,2.20796 6.5257,1.95731 10.15818,-0.44839 1.65,-1.09275 3.7646,-1.98979 4.69911,-1.99341 4.50383,-0.0175 7.28899,-6.68598 7.48894,-17.93078 0.10343,-5.8167 0.32843,-11.8993 0.5,-13.51691 0.25562,-2.41004 -0.13946,-3.06916 -2.18805,-3.65032 -2.10137,-0.59613 -2.17312,-0.72511 -0.45,-0.8089 3.31282,-0.16108 4.45,1.92572 4.45,8.16606 0,3.22616 0.55572,6.84866 1.23494,8.05 0.67922,1.20134 1.30991,3.53426 1.40153,5.18426 0.0916,1.65 0.44924,4.35 0.79468,6 0.89086,4.25511 -11.798,12.55227 -23.85283,15.59722 -6.47954,1.63668 -12.83122,2.99016 -16.07832,3.42613 -7.18062,0.9641 -11.89555,2.39298 -14.6736,4.44688 -1.69733,1.25489 -5.45831,2.55369 -8.73663,3.01708 -3.16599,0.44751 -7.96886,1.7205 -10.67305,2.82887 -5.11717,2.09737 -11.97144,3.10426 -16.6308,2.44306 z M 96.169493,397.21418 c 0,-1.93679 4.463947,-4.24161 8.092467,-4.17829 15.05664,0.26276 26.94463,-0.91991 29.50701,-2.93548 1.46863,-1.15523 3.26702,-2.10041 3.99642,-2.10041 0.72941,0 2.13122,-0.86349 3.11514,-1.91887 0.98393,-1.05538 3.13896,-2.23943 4.78896,-2.63124 1.65,-0.3918 3.9,-1.50581 5,-2.47558 1.1,-0.96977 3.90933,-2.07473 6.24295,-2.45547 2.53257,-0.4132 7.22898,-2.66101 11.65037,-5.57614 7.17712,-4.73206 14.29479,-7.89823 17.82275,-7.92815 2.96085,-0.0251 8.54381,-3.19737 9.81831,-5.5788 0.67209,-1.2558 2.2893,-2.55116 3.5938,-2.87856 1.69845,-0.42629 2.37182,-1.29964 2.37182,-3.07624 0,-1.36452 0.44085,-2.48095 0.97968,-2.48095 1.54764,0 4.68589,-7.06478 5.3146,-11.96417 0.55126,-4.29583 -7.43359,-22.08114 -16.40302,-36.53583 -1.02386,-1.65 -2.27519,-3.9 -2.78074,-5 -5.89108,-12.81817 -7.21407,-16.49865 -7.52148,-20.92444 -0.28456,-4.09687 -0.99185,-5.79526 -3.55695,-8.54121 -1.76096,-1.88512 -4.48621,-5.97198 -6.0561,-9.0819 -1.56988,-3.10993 -3.94521,-6.95898 -5.27851,-8.55344 C 156.49239,237.99227 150.90688,201 159.40815,201 c 0.4441,0 0.0705,1.12468 -0.83015,2.49928 -6.44543,9.83697 1.21791,35.03647 15.44942,50.80264 15.40154,17.06236 17.96811,21.0468 17.52915,27.21286 -0.42882,6.02362 6.42139,22.66777 12.47517,30.3113 1.61607,2.04046 3.99569,5.95182 5.28803,8.69192 2.677,5.67593 3.46224,6.44533 6.59972,6.46669 2.57947,0.0175 2.64471,0.26921 1.15214,4.44431 -1.02352,2.86304 -0.82037,3.37007 3,7.48739 5.95422,6.41704 4.16137,11.39282 -1.9837,5.50547 -4.48669,-4.29852 -5.91867,-1.65154 -3.40447,6.29307 0.58584,1.85119 0.11688,2.49346 -2.85562,3.91095 -2.4969,1.19069 -3.64622,2.45563 -3.85746,4.24552 -0.20902,1.77109 -1.06355,2.72786 -2.79879,3.13364 -1.78603,0.41767 -2.64755,1.42641 -3.02299,3.53955 -0.52508,2.95541 -0.52508,2.95541 -8.08019,2.95541 -4.69893,0 -8.15101,0.48884 -9.13136,1.29306 -0.89977,0.73811 -2.6177,1.03167 -4.0029,0.68401 -3.81122,-0.95656 -9.76466,3.00599 -9.76466,6.49926 0,4.22054 -1.78563,5.05053 -9.62753,4.47506 -6.41539,-0.47078 -7.14759,-0.31966 -9.23934,1.9069 -1.34882,1.43576 -3.00369,2.22681 -4.0733,1.94711 -1.08161,-0.28285 -3.20459,0.76081 -5.31268,2.61175 C 140.98549,389.61272 138.637,391 137.69777,391 c -0.93923,0 -2.48498,0.9599 -3.43499,2.13312 -1.33641,1.6504 -2.16473,1.91771 -3.66029,1.18123 -1.06315,-0.52353 -6.658,-0.80366 -12.433,-0.62251 -18.345827,0.57548 -19.061044,0.67103 -20.580656,2.74929 -0.780638,1.06762 -1.419341,1.41549 -1.419341,0.77305 z M 381.7675,374.83119 C 377.9714,373.27404 373.80229,372 372.5028,372 c -3.04964,0 -6.3245,-5.22061 -6.32957,-10.09028 -0.005,-4.81563 -4.6962,-13.80184 -11.84847,-22.69637 -3.22264,-4.00765 -6.34842,-8.95765 -6.94618,-11 -0.59775,-2.04234 -2.2721,-7.76335 -3.72076,-12.71335 -1.44866,-4.95 -3.5632,-11.25 -4.69898,-14 -1.13577,-2.75 -3.20217,-8.375 -4.592,-12.5 -1.38983,-4.125 -3.00871,-8.5683 -3.5975,-9.874 -0.58879,-1.30569 -1.10114,-2.88069 -1.13855,-3.5 -0.15347,-2.5408 -1.7378,-6.626 -2.56971,-6.626 -1.37239,0 -1.06046,2.77277 0.69351,6.16456 1.16369,2.25034 1.2893,3.36104 0.47247,4.17787 -1.54308,1.54308 -3.93453,-0.12337 -6.17673,-4.30419 -0.9907,-1.84727 -2.26917,-3.82657 -2.84106,-4.39846 -1.3266,-1.3266 -1.35447,-6.32726 -0.0398,-7.13978 1.68137,-1.03914 1.18906,-5.5 -0.60699,-5.5 -1.14653,0 -1.39433,-0.50144 -0.86482,-1.75 1.73378,-4.08816 1.09119,-5.66149 -2.56216,-6.27321 -4.55427,-0.76256 -6.23382,-1.83656 -5.57144,-3.56269 0.74165,-1.9327 -2.49683,-3.4141 -7.46355,-3.4141 -10.95435,0 -17.17646,-2.10021 -16.6076,-5.60571 0.74988,-4.62097 -6.8517,-10.06383 -15.82344,-11.32984 -4,-0.56445 -4,-0.56445 -4.29184,-8.3022 -0.6028,-15.98202 1.7521,-18.45759 10.69061,-11.23846 3.08068,2.48808 8.22712,6.65058 11.43655,9.25 3.20942,2.59941 7.86657,7.10024 10.34921,10.00184 4.81042,5.62217 9.56556,8.72611 11.96033,7.80716 2.56971,-0.9861 7.56502,3.53898 7.02503,6.36374 -0.36547,1.91183 0.4061,3.26807 3.43362,6.03549 4.25747,3.89172 6.72376,9.32467 10.44899,23.01798 1.27182,4.675 2.76731,9.85 3.3233,11.5 1.06402,3.15762 5.20574,14.9074 7.04988,20 0.5975,1.65 3.11834,9.525 5.60187,17.5 4.07506,13.08564 5.10233,15.28034 10.53149,22.5 3.30879,4.4 7.11035,10.09542 8.44793,12.65649 1.33757,2.56106 2.95799,4.83183 3.60093,5.04614 0.87497,0.29166 0.83543,1.31211 -0.15724,4.05728 -1.4282,3.9496 0.44238,7.74009 3.81967,7.74009 0.8032,0 4.71731,1.52524 8.69803,3.38943 4.45044,2.08415 8.18178,3.20894 9.68926,2.92077 1.34837,-0.25776 4.00201,-0.0623 5.89698,0.43435 3.13178,0.8208 2.89925,0.90367 -2.5546,0.91041 -4.30815,0.005 -7.94619,-0.7909 -12.90199,-2.82377 z M 316.01351,90.15254 c 1.72171,-1.324308 2.36346,-2.844978 2.41724,-5.727758 0.0952,-5.10262 5.49722,-13.47451 11.24729,-17.43066 2.55844,-1.76026 5.51156,-5.139945 7.37264,-8.437597 1.70756,-3.025628 4.18733,-6.210539 5.5106,-7.07758 6.54832,-4.290621 4.68767,-17.366943 -4.19461,-29.478943 -1.9278,-2.628787 -2.05946,-3.05892 -0.5289,-1.72801 4.27585,3.71811 10.33172,18.2213 10.33172,24.74342 0,1.054807 -2.025,4.197872 -4.5,6.98459 -2.475,2.786718 -4.57044,5.614239 -4.65652,6.28338 -0.0861,0.669141 -0.24432,2.477351 -0.35163,4.018244 -0.1073,1.540894 -0.71187,3.318396 -1.34347,3.949996 -0.63161,0.63161 -1.14838,2.33615 -1.14838,3.78786 0,1.84504 -0.75247,2.98234 -2.5,3.77857 -1.46651,0.66818 -2.5,1.97473 -2.5,3.16051 0,1.11179 -0.46518,2.02144 -1.03373,2.02144 -0.56854,0 -1.96299,1.575 -3.09877,3.5 -1.13578,1.925 -2.64801,3.5 -3.36052,3.5 -0.71251,0 -2.74065,1.35 -4.50698,3 -1.76633,1.649998 -3.72642,2.989988 -4.35576,2.977758 -0.62933,-0.0122 -0.0894,-0.83358 1.19978,-1.82522 z"
         id="path521854"
         inkscape:label="JeanHighlight" /><path
         style="fill:#13121b"
         d="m 126.66949,490.38007 c -11.40075,-6.16879 -22.76045,-26.79358 -23.90425,-43.40081 -0.3883,-5.63776 -2.00131,-15.95609 -3.584477,-22.92962 -5.332538,-23.48878 -4.520085,-29.30931 4.158067,-29.78903 14.38499,-0.79519 25.58455,-0.77311 27.26366,0.0537 1.49556,0.73648 2.32388,0.46917 3.66029,-1.18123 0.95001,-1.17318 2.49576,-2.13308 3.43499,-2.13308 0.93923,0 3.28772,-1.38728 5.21887,-3.08285 2.10809,-1.85094 4.23107,-2.8946 5.31268,-2.61175 1.06961,0.2797 2.72448,-0.51135 4.0733,-1.94711 2.09175,-2.22656 2.82395,-2.37768 9.23934,-1.9069 7.8419,0.57547 9.62753,-0.25452 9.62753,-4.47506 0,-3.49327 5.95344,-7.45582 9.76466,-6.49926 1.3852,0.34766 3.10313,0.0541 4.0029,-0.68401 0.98035,-0.80422 4.43243,-1.29306 9.13136,-1.29306 7.55511,0 7.55511,0 8.08019,-2.95541 0.37544,-2.11314 1.23696,-3.12188 3.02299,-3.53955 1.73524,-0.40578 2.58977,-1.36255 2.79879,-3.13364 0.21124,-1.78989 1.36056,-3.05483 3.85746,-4.24552 2.9725,-1.41749 3.44146,-2.05976 2.85562,-3.91095 -2.5142,-7.94461 -1.08222,-10.59159 3.40447,-6.29307 6.14507,5.88735 7.93792,0.91157 1.9837,-5.50547 -3.82037,-4.11732 -4.02352,-4.62435 -3,-7.48739 1.49257,-4.1751 1.42733,-4.42676 -1.15214,-4.44431 -3.13748,-0.0214 -3.92272,-0.79076 -6.59972,-6.46669 -1.29234,-2.7401 -3.67196,-6.65146 -5.28803,-8.69192 -6.05378,-7.64353 -12.90399,-24.28768 -12.47517,-30.3113 0.43896,-6.16606 -2.12761,-10.1505 -17.52915,-27.21286 -18.94984,-20.9933 -23.22831,-48.17336 -9.05907,-57.55011 14.11172,-9.3387 30.66381,-12.47533 34.35089,-6.50951 0.5157,0.83442 1.05027,0.83658 2.04832,0.008 1.41269,-1.17243 9.48236,-0.57667 10.30914,0.76109 0.25215,0.40799 -2.24484,1.91418 -5.54887,3.3471 -6.14555,2.66525 -6.74149,3.29802 -7.19646,7.64123 -0.23302,2.22448 0.1786,2.5551 3.73489,3 3.43879,0.4302 4.24263,1.02352 5.75787,4.25 1.43378,3.05303 2.29446,3.75 4.63078,3.75 1.57833,0 3.39947,0.63835 4.04698,1.41855 0.64751,0.7802 4.41511,2.60216 8.37245,4.04879 8.63747,3.15748 11.94698,5.49201 12.2824,8.66398 0.13777,1.30277 0.39949,3.26868 0.58162,4.36868 0.20551,1.24128 -0.23791,2.02247 -1.16887,2.05922 -5.80959,0.22936 -7.0292,2.12526 -3.5,5.44078 3.20916,3.01485 3.15261,3.39031 -0.68429,4.5432 -4.8004,1.4424 -4.58439,3.22924 0.67144,5.55414 3.60887,1.59638 4.51106,2.44158 3.98481,3.73312 -2.85485,7.00656 -3.56803,18.14393 -1.3342,20.83553 0.71497,0.86149 1.83803,3.1315 2.49567,5.04447 1.30303,3.79026 1.6974,3.64017 -4.49248,1.70977 -2.65322,-0.82745 -4.62408,10.55609 -2.27319,13.12977 2.35236,2.57529 2.14888,7.45 -0.31097,7.45 -6.44775,0 -7.58689,4.57907 -2.4709,9.93246 1.69724,1.776 2.78522,3.52977 2.41772,3.89726 -0.36749,0.3675 -2.3622,-1.31845 -4.43269,-3.74655 -2.7211,-3.19109 -4.24185,-4.23156 -5.48667,-3.75387 -2.04196,0.78357 -1.34195,4.31158 1.32357,6.6707 0.93215,0.825 3.01038,3.3 4.61827,5.5 3.53138,4.83178 6.45679,7.41575 8.47391,7.48485 0.825,0.0283 3.9344,1.39323 6.90977,3.03327 2.97537,1.64003 5.94313,2.98188 6.59501,2.98188 0.65189,0 1.99209,0.89156 2.97824,1.98124 2.64162,2.91896 0.44088,5.28271 -4.12151,4.4268 -5.24759,-0.98445 -4.46001,2.19216 1.13849,4.59196 5.31095,2.27654 6.08805,5 1.42668,5 -2.38097,0 -2.9979,0.39165 -2.73852,1.73852 0.48813,2.53467 3.447,2.71044 5.48859,0.32604 2.42839,-2.83615 3.57799,-2.60098 5.79477,1.18544 1.0465,1.7875 2.60603,3.79819 3.46561,4.4682 1.39745,1.08926 1.37765,1.22156 -0.18713,1.25 -1.32728,0.0241 -1.75,0.87725 -1.75,3.5318 0,3.53862 -2.75728,7.48534 -5.25,7.51474 -0.6875,0.008 -0.17549,0.57061 1.1378,1.25 3.01556,1.56001 3.02838,2.90869 0.0421,4.43112 -2.56191,1.30609 -4.16936,4.51655 -3.34153,6.67383 0.85042,2.21616 -3.14909,2.62423 -4.96249,0.50633 -2.46247,-2.87567 -9.62588,-2.28778 -9.62588,0.79027 0,0.79861 -0.35899,1.23016 -0.79775,0.95899 -1.75751,-1.0862 -3.44737,1.37006 -3.93815,5.72424 -0.53549,4.75092 -2.28723,6.34659 -5.58013,5.08298 -1.18845,-0.45605 -1.44074,-1.39836 -0.98478,-3.67816 0.34382,-1.71909 0.21511,-2.85259 -0.29309,-2.58124 -0.49836,0.2661 -3.90278,1.94303 -7.56539,3.72652 -3.66261,1.7835 -7.44486,4.11075 -8.40499,5.17169 -0.96013,1.06093 -2.28524,1.92897 -2.94468,1.92897 -0.65945,0 -2.29888,1.0125 -3.64318,2.25 -1.3443,1.2375 -4.22251,3.5003 -6.39602,5.02844 -7.15209,5.02847 -10.83199,7.77072 -14.78478,11.01759 -11.26273,9.25134 -18.07917,11.27076 -24.14627,7.15352 -4.90256,-3.32697 -6.50037,-2.87984 -9.52079,2.66428 -1.375,2.52388 -3.9625,6.24641 -5.75,8.27231 -2.6023,2.94937 -3.25,4.54893 -3.25,8.02621 0,2.64028 -0.58804,4.83079 -1.5,5.58765 -2.36625,1.96381 -1.97905,14.36875 0.62426,20 6.98327,15.10557 -1.27363,28.06282 -13.62426,21.38007 z m 218.83335,-64.80088 c -2.81305,-2.04597 -4.48704,-6.77911 -8.99674,-25.43796 -1.48026,-6.12454 -2.19932,-7.51873 -4.28723,-8.31256 -2.94718,-1.12051 -4.01301,-2.54932 -4.03407,-5.40788 -0.008,-1.14356 -1.8026,-4.51856 -3.98707,-7.5 -7.68853,-10.49356 -17.96434,-26.90787 -18.05557,-28.84148 -0.015,-0.31862 -4.09292,-4.85431 -9.06197,-10.07931 -14.40705,-15.14916 -20.16734,-24.70412 -21.40149,-35.5 -0.37724,-3.3 -2.17617,-10.5 -3.99763,-16 -3.18939,-9.63059 -5.58084,-19.94784 -9.02459,-38.93414 -3.59955,-19.84524 -11.3849,-30.24817 -24.77985,-33.11129 -1.76393,-0.37703 -3.8194,-1.17995 -4.56773,-1.78427 -0.74832,-0.60431 -2.54019,-1.25672 -3.98194,-1.4498 -3.18725,-0.42683 -3.56588,-0.75065 -2.63633,-2.25471 0.43849,-0.70948 1.90214,-0.93113 3.73199,-0.56516 3.15552,0.6311 3.60967,-2.75314 1.18098,-8.80031 -0.67297,-1.67561 -0.43378,-1.81705 2.02795,-1.1992 2.32197,0.58278 2.68564,0.42616 2.16442,-0.93211 -0.34456,-0.89792 -0.62648,-1.78408 -0.62648,-1.96924 0,-0.18516 -1.575,-1.31005 -3.5,-2.49977 -4.32969,-2.67589 -4.45529,-4 -0.37942,-4 3.80262,0 -2.57146,-7.1434 -7.47145,-8.37321 C 221.30151,181.99503 220.049,180 222.16949,180 c 2.94915,0 0.18679,-2.47118 -5.75,-5.14389 -3.7125,-1.67134 -7.69356,-3.48685 -8.84681,-4.03445 -2.59145,-1.23052 -22.54239,-1.61026 -27.65319,-0.52635 -2.25437,0.47812 -3.75,0.41743 -3.75,-0.15217 0,-1.56108 5.93316,-3.14314 11.78763,-3.14314 24.76792,0 31.80954,-2.79449 24.84891,-9.86137 -8.89038,-9.02611 -4.70681,-10.73026 5.43574,-2.21421 7.31874,6.14508 11.40369,7.60475 12.5949,4.50051 1.06847,-2.7844 -1.76169,-9.74176 -5.27004,-12.95528 -1.87148,-1.71421 -3.39714,-4.09025 -3.39714,-5.29065 0,-1.19845 -0.41425,-2.179 -0.92054,-2.179 -0.5063,0 -1.23995,-1.4625 -1.63032,-3.25 -0.39038,-1.7875 -1.545,-4.31539 -2.56583,-5.61754 -4.47055,-5.70251 5.05142,-4.77019 26.61669,2.60611 8.8,3.01 18.04599,5.91672 20.54664,6.45938 9.98837,2.16755 10.68748,9.80205 0.8976,9.80205 -2.62724,0 -2.94424,0.33452 -2.94424,3.10699 0,2.56682 -0.30425,2.98174 -1.75,2.38655 -4.33369,-1.7841 -5.36661,-1.65976 -7.77193,0.93562 -4.82426,5.20546 -2.65049,18.79656 4.10297,25.65312 2.54241,2.58122 5.13925,5.72063 5.77076,6.97646 1.67584,3.33259 3.6482,3.61621 3.6482,0.52459 0,-1.42083 0.36719,-2.58333 0.81599,-2.58333 0.44879,0 1.85316,-2.50237 3.12081,-5.56081 2.4624,-5.94098 4.65322,-5.6233 8.36592,1.21312 1.00008,1.8415 4.93257,7.3712 14.59528,20.52325 1.17162,1.59472 1.18297,2.30463 0.07,4.38414 -1.62776,3.04149 1.04467,7.39865 5.22336,8.5162 4.23253,1.13195 8.60761,5.78333 9.67788,10.28909 0.54021,2.27426 1.29311,5.14751 1.67309,6.38501 1.5097,4.91664 -5.60744,1.33079 -11.85785,-5.97437 -2.48264,-2.9016 -7.13979,-7.40243 -10.34921,-10.00184 -3.20943,-2.59942 -8.35587,-6.76192 -11.43655,-9.25 -8.93851,-7.21913 -11.29341,-4.74356 -10.69061,11.23846 0.29189,7.73775 0.29189,7.73775 4.29189,8.3022 8.97174,1.26601 16.57332,6.70887 15.82344,11.32984 -0.56886,3.5055 5.65325,5.60571 16.6076,5.60571 4.96672,0 8.2052,1.4814 7.46355,3.4141 -0.66238,1.72613 1.01717,2.80013 5.57144,3.56269 3.65335,0.61172 4.29594,2.18505 2.56216,6.27321 -0.52951,1.24856 -0.28171,1.75 0.86482,1.75 1.79605,0 2.28836,4.46086 0.60699,5.5 -1.31469,0.81252 -1.28682,5.81318 0.0398,7.13978 0.57189,0.57189 1.85036,2.55119 2.84106,4.39846 2.2422,4.18082 4.63365,5.84727 6.17673,4.30419 0.81683,-0.81683 0.69122,-1.92753 -0.47247,-4.17787 C 326.00062,271.77277 325.68869,269 327.06108,269 c 0.83191,0 2.41624,4.0852 2.56971,6.626 0.0374,0.61931 0.54976,2.19431 1.13855,3.5 0.58879,1.3057 2.20767,5.749 3.5975,9.874 1.38983,4.125 3.45623,9.75 4.592,12.5 1.13578,2.75 3.25032,9.05 4.69898,14 1.44866,4.95 3.12301,10.67101 3.72076,12.71335 0.59776,2.04235 3.72354,6.99235 6.94618,11 7.15227,8.89453 11.84345,17.88074 11.84847,22.69637 0.005,4.88236 3.27944,10.09028 6.34402,10.09028 1.30744,0 5.49187,1.2844 9.29873,2.85422 9.32853,3.84678 23.98876,3.37493 34.35351,-1.1057 12.10638,-5.23352 17.72961,-5.29556 17.18805,-0.18962 -0.17157,1.61761 -0.39657,7.70021 -0.5,13.51691 -0.19995,11.2448 -2.98511,17.91331 -7.48894,17.93078 -0.93451,0.004 -3.04911,0.90066 -4.69911,1.99341 -3.63248,2.4057 -9.3109,2.65635 -10.15818,0.44839 -0.78365,-2.04216 -4.75852,-1.17442 -11.95075,2.60891 -2.99143,1.57358 -7.11568,3.13598 -9.16501,3.47199 -2.04933,0.33602 -9.54915,3.33807 -16.66625,6.67124 -14.46385,6.77389 -22.99178,8.4586 -27.22646,5.37866 z M 285.66949,117.13944 c -4.94979,-3.05746 -6.82636,-5.6237 -5.13737,-7.02543 1.14475,-0.95006 1.34847,-4.5378 1.07282,-18.89338 -0.19584,-10.199118 0.0885,-19.074588 0.66986,-20.910538 0.84529,-2.66937 0.59275,-4.07219 -1.54759,-8.596494 -2.60306,-5.50241 -3.23423,-8.713596 -1.71271,-8.713596 1.24587,0 3.82199,3.18292 4.57203,5.648953 0.35947,1.181924 1.77831,3.27367 3.15297,4.648325 2.10221,2.102222 2.5673,3.667562 2.92689,9.851042 0.68663,11.80718 0.80267,12.21062 4.20005,14.60168 C 295.62476,88.987502 297.5596,90 298.1661,90 c 2.2083,0 7.00339,-3.089458 7.00339,-4.512258 0,-0.8035 1.4625,-2.11751 3.25,-2.92003 10.7012,-4.80444 13.61032,-12.49254 6.86403,-18.139906 -1.86229,-1.558932 -4.00583,-4.317932 -4.76342,-6.131113 -1.11709,-2.673568 -1.93554,-3.296691 -4.3301,-3.296691 -3.99576,0 -9.67619,-2.715998 -14.58616,-6.974114 -2.2361,-1.939237 -4.86721,-3.981472 -5.8469,-4.5383 -4.58275,-2.604703 5.35698,-22.478083 11.2491,-22.491324 0.9149,-0.0021 3.02958,-0.836838 4.6993,-1.85507 7.85851,-4.792301 27.48448,-4.502947 34.19086,0.504091 9.49014,7.085411 13.70584,27.220378 6.66508,31.83366 -1.32327,0.867041 -3.80304,4.051952 -5.5106,7.07758 -1.86108,3.297652 -4.8142,6.677337 -7.37264,8.437597 -5.6693,3.90058 -11.15264,12.33457 -11.24341,17.29363 -0.0596,3.25469 -0.75158,4.37151 -4.91723,7.935858 -2.66635,2.28146 -7.09791,6.47508 -9.84791,9.31914 -2.75,2.84406 -6.23476,5.46831 -7.7439,5.83166 -2.79194,0.6722 -5.7561,5.69188 -5.7561,9.74771 0,2.34448 -0.72797,2.34728 -4.5,0.0173 z"
         id="path521852"
         inkscape:label="JeansAndHat" /></g><g
       id="g302" /></g></svg>
