<?xml version="1.0" encoding="UTF-8" standalone="no"?>
<!-- Created with Inkscape (http://www.inkscape.org/) -->

<svg
   width="512"
   height="512"
   viewBox="0 0 512 512"
   version="1.1"
   id="svg5"
   inkscape:version="1.2.1 (9c6d41e, 2022-07-14)"
   xml:space="preserve"
   inkscape:export-filename="book.svg"
   inkscape:export-xdpi="12"
   inkscape:export-ydpi="12"
   xmlns:inkscape="http://www.inkscape.org/namespaces/inkscape"
   xmlns:sodipodi="http://sodipodi.sourceforge.net/DTD/sodipodi-0.dtd"
   xmlns:xlink="http://www.w3.org/1999/xlink"
   xmlns="http://www.w3.org/2000/svg"
   xmlns:svg="http://www.w3.org/2000/svg"><sodipodi:namedview
     id="namedview7"
     pagecolor="#505050"
     bordercolor="#eeeeee"
     borderopacity="1"
     inkscape:showpageshadow="false"
     inkscape:pageopacity="0"
     inkscape:pagecheckerboard="false"
     inkscape:deskcolor="#57594a"
     inkscape:document-units="px"
     showgrid="true"><inkscape:grid
       type="xygrid"
       id="grid129"
       spacingx="2.1166666"
       spacingy="2.1166666"
       empspacing="8"
       dotted="false" /></sodipodi:namedview><defs
     id="defs2"><color-profile
       name="sRGB-IEC61966-2.1"
       xlink:href="file:///System/Library/ColorSync/Profiles/sRGB%20Profile.icc"
       id="color-profile3219" /></defs><g
     inkscape:label="Layer 1"
     inkscape:groupmode="layer"
     id="layer1"><g
       id="g436"
       transform="translate(626.98305)"><g
         class=""
         id="g425"
         style="fill:#30cf30;fill-opacity:1"><path
           d="M -608.98355,21.499998 V 115.775 c 28.382,-12.57 52.994,-35.202002 71.39,-59.734002 -4.662,-3.466 -8.973,-7.064 -12.865,-10.79 -7.622,-7.299 -13.802,-15.241 -17.552,-23.751 z m 61.754,0 c 2.378,3.508 5.41,7.103 9.22,10.75 10.73,10.274 26.505,20.414 44.88,29.117 36.748,17.407 83.946,29.133 122.146,29.133 38.2,0 85.398,-11.726 122.146,-29.133 18.375,-8.703 34.15,-18.843 44.88,-29.117 3.81,-3.647 6.842,-7.242 9.22,-10.75 z m 373.273,0 c -3.75,8.51 -9.93,16.452 -17.552,23.75 -3.892,3.726 -8.203,7.324 -12.864,10.79 18.396,24.533 43.008,47.166002 71.39,59.735002 V 21.499998 Z m -82.554,16.734 c -15.693,18.203 -62.045,30.592 -114.473,30.596 -52.242,-0.023 -98.44,-12.343 -114.236,-30.463 27.218,10.788 69.442,17.12 114.236,17.133 44.953,-0.022 87.294,-6.408 114.473,-17.266 z m -265.688,28.046 c -21.415,29.140004 -51.02,55.635002 -86.785,69.008002 v 174.035 c 2.116,0.805 4.112,1.178 6,1.178 8.312,-0.646 12.295,-5.132 18.324,-9.984 29.568,-24.024 49.255,-66.27 65.053,-119.094 9.187,-30.72 17.136,-64.91 25.34,-100.780002 -2.216,-0.986 -4.41,-1.986 -6.57,-3.01 -7.512,-3.557 -14.67,-7.346 -21.362,-11.35 z m 302.43,0 c -6.693,4.006 -13.85,7.795 -21.36,11.353 -2.162,1.023 -4.356,2.023 -6.572,3.008 8.204,35.872002 16.153,70.062002 25.34,100.782002 15.798,52.825 35.485,95.07 65.053,119.094 5.414,4.648 11.22,9.89 18.324,9.984 1.888,0 3.884,-0.373 6,-1.178 V 135.287 c -35.764,-13.373 -65.37,-39.869998 -86.785,-69.006002 z M -580.85355,320.84 c -6.897,4.853 -14.337,7.66 -22.13,7.66 -2.025,0 -4.026,-0.197 -6,-0.564 v 123.2 c 6.273,2.01 14.098,3.364 22,3.364 12.41,0 24.637,-3.336 30.94,-7.316 -0.04,-43.556 -0.973,-88.042 -24.81,-126.344 z m 419.74,0 c -23.837,38.302 -24.77,82.788 -24.81,126.344 6.303,3.98 18.53,7.316 30.94,7.316 7.902,0 15.727,-1.353 22,-3.363 v -123.2 c -1.974,0.366 -3.975,0.563 -6,0.563 -7.792,0 -15.232,-2.807 -22.13,-7.66 z m -377.48,91.66 c 0.6,13.277 0.61,26.37 0.61,39 v 3.73 l -2.637,2.633 c -11.183,11.182 -28.863,14.637 -46.363,14.637 -7.475,0 -14.98,-0.636 -22,-2.232 V 490.5 h 476 v -20.232 c -7.02,1.596 -14.525,2.232 -22,2.232 -17.5,0 -35.18,-3.455 -46.363,-14.637 l -2.637,-2.633 v -3.73 c 0,-12.63 0.01,-25.723 0.61,-39 z"
           fill="#5c77ae"
           fill-opacity="1"
           id="path423"
           style="fill:#30cf30;fill-opacity:1" /></g></g></g></svg>
