<?xml version="1.0" encoding="UTF-8" standalone="no"?>
<!-- Created with Inkscape (http://www.inkscape.org/) -->

<svg
   width="512"
   height="512"
   viewBox="0 0 512 512"
   version="1.1"
   id="svg5"
   inkscape:version="1.2.1 (9c6d41e, 2022-07-14)"
   xml:space="preserve"
   inkscape:export-filename="../../ProjectFolder/scenes/City/2D_WorldMap/Buildings/CommercialBuildings/CommercialBuildingFloors.png"
   inkscape:export-xdpi="96"
   inkscape:export-ydpi="96"
   sodipodi:docname="CommercialBuildings.svg"
   xmlns:inkscape="http://www.inkscape.org/namespaces/inkscape"
   xmlns:sodipodi="http://sodipodi.sourceforge.net/DTD/sodipodi-0.dtd"
   xmlns:xlink="http://www.w3.org/1999/xlink"
   xmlns="http://www.w3.org/2000/svg"
   xmlns:svg="http://www.w3.org/2000/svg"><sodipodi:namedview
     id="namedview7"
     pagecolor="#505050"
     bordercolor="#eeeeee"
     borderopacity="1"
     inkscape:showpageshadow="false"
     inkscape:pageopacity="0"
     inkscape:pagecheckerboard="false"
     inkscape:deskcolor="#57594a"
     inkscape:document-units="px"
     showgrid="true"
     inkscape:zoom="0.97792718"
     inkscape:cx="318.53087"
     inkscape:cy="263.82332"
     inkscape:window-width="1200"
     inkscape:window-height="736"
     inkscape:window-x="175"
     inkscape:window-y="37"
     inkscape:window-maximized="0"
     inkscape:current-layer="layer3"><inkscape:grid
       type="xygrid"
       id="grid129"
       spacingx="2.1166666"
       spacingy="2.1166666"
       empspacing="8"
       dotted="false" /></sodipodi:namedview><defs
     id="defs2"><color-profile
       name="sRGB-IEC61966-2.1"
       xlink:href="file:///System/Library/ColorSync/Profiles/sRGB%20Profile.icc"
       id="color-profile3764" /></defs><g
     inkscape:groupmode="layer"
     id="layer2"
     inkscape:label="Floors"
     style="display:inline"><rect
       style="fill:#514228;fill-opacity:1;stroke:none;stroke-width:4;stroke-linejoin:round"
       id="rect903"
       width="169.33333"
       height="203.2"
       x="15.866665"
       y="12.799999" /><rect
       style="fill:#3e4846;fill-opacity:1;stroke:none;stroke-width:4;stroke-linejoin:round"
       id="rect2341"
       width="152.39999"
       height="203.2"
       x="185.2"
       y="12.799999" /><rect
       style="fill:#7c653d;fill-opacity:1;stroke:none;stroke-width:4;stroke-linejoin:round"
       id="rect2628"
       width="152.39999"
       height="203.2"
       x="339.20001"
       y="12.799999" /><rect
       style="fill:#774728;fill-opacity:1;stroke:none;stroke-width:4;stroke-linejoin:round"
       id="rect2632"
       width="169.33333"
       height="203.2"
       x="-493.06717"
       y="-498.13373"
       transform="scale(-1)" /><rect
       style="fill:#514228;fill-opacity:1;stroke:none;stroke-width:4;stroke-linejoin:round"
       id="rect2644"
       width="152.39999"
       height="203.2"
       x="-323.73386"
       y="-498.13373"
       transform="scale(-1)" /><rect
       style="fill:#705b37;fill-opacity:1;stroke:none;stroke-width:4;stroke-linejoin:round"
       id="rect2648"
       width="152.39999"
       height="203.2"
       x="-169.73383"
       y="-498.13373"
       transform="scale(-1)" /></g><g
     inkscape:groupmode="layer"
     id="layer3"
     inkscape:label="Walls"
     style="display:inline"><path
       style="fill:#637275;stroke:#2b1100;stroke-width:4;stroke-linejoin:round"
       d="M 15.866666,114.4 H 83.6"
       id="path618"
       sodipodi:nodetypes="cc" /><path
       style="fill:#637275;stroke:#2b1100;stroke-width:4;stroke-linejoin:round"
       d="M 185.19999,114.4 H 134.4"
       id="path620"
       sodipodi:nodetypes="cc" /><path
       style="fill:#637275;stroke:#2b1100;stroke-width:4;stroke-linejoin:round"
       d="M 134.4,215.99999 V 182.13333"
       id="path718" /><path
       style="fill:#637275;stroke:#2b1100;stroke-width:4;stroke-linejoin:round"
       d="M 185.19999,148.26666 H 134.4"
       id="path720" /><path
       id="rect844"
       style="color:#000000;fill:#241c1c;stroke-linejoin:round"
       d="m 15.867188,10.800781 c -1.104523,1.1e-4 -1.999891,0.895477 -2,2 V 216 c 1.09e-4,1.10452 0.895477,1.99989 2,2 h 18 v -4 h -16 V 14.800781 H 118.40039 v -4 z m 135.466792,0 v 4 h 31.86524 V 214 H 67.732422 v 4 H 185.19922 c 1.10452,-1.1e-4 1.99989,-0.89548 2,-2 V 12.800781 c -1.1e-4,-1.104523 -0.89548,-1.99989 -2,-2 z" /><path
       id="rect2343"
       style="color:#000000;fill:#2b1100;stroke-linejoin:round"
       d="m 185.19922,10.800781 c -1.10452,1.1e-4 -1.99989,0.895477 -2,2 V 216 c 1.1e-4,1.10452 0.89548,1.99989 2,2 h 28.4668 v -4 h -26.4668 V 14.800781 H 236 v -4 z m 101.60156,0 v 4 h 48.79883 V 214 h -98.5332 v 4 h 100.5332 c 1.10452,-1.1e-4 1.99989,-0.89548 2,-2 V 12.800781 c -1.1e-4,-1.104523 -0.89548,-1.99989 -2,-2 z" /><path
       id="path2630"
       style="color:#000000;fill:#2b1100;stroke-linejoin:round"
       d="m 339.19922,10.800781 c -1.10452,1.1e-4 -1.99989,0.895477 -2,2 V 216 c 1.1e-4,1.10452 0.89548,1.99989 2,2 h 67.20117 v -4 H 341.19922 V 14.800781 H 390 v -4 z m 101.60156,0 v 4 h 48.79883 V 214 h -15.4668 v 4 h 17.4668 c 1.10452,-1.1e-4 1.99989,-0.89548 2,-2 V 12.800781 c -1.1e-4,-1.104523 -0.89548,-1.99989 -2,-2 z" /><path
       style="fill:#637275;stroke:#2b1100;stroke-width:4;stroke-linejoin:round"
       d="M 493.06717,396.53371 H 425.33384"
       id="path2634"
       sodipodi:nodetypes="cc" /><path
       style="fill:#637275;stroke:#2b1100;stroke-width:4;stroke-linejoin:round"
       d="m 323.73385,396.53371 h 50.79999"
       id="path2636"
       sodipodi:nodetypes="cc" /><path
       style="fill:#637275;stroke:#2b1100;stroke-width:4;stroke-linejoin:round"
       d="m 374.53384,294.93372 v 33.86666"
       id="path2638" /><path
       style="fill:#637275;stroke:#2b1100;stroke-width:4;stroke-linejoin:round"
       d="m 323.73385,362.66705 h 50.79999"
       id="path2640" /><path
       id="path2642"
       style="color:#000000;fill:#241c1c;stroke-linejoin:round"
       d="m 323.73438,292.93359 c -1.10452,1.1e-4 -1.9999,0.89548 -2,2 v 203.19922 c 1e-4,1.10452 0.89548,1.99989 2,2 h 33.86523 v -4 H 325.73438 V 296.93359 h 97.5996 v -4 z m 133.46484,0 v 4 h 33.86719 V 496.13281 H 388.5332 v 4 h 104.53321 c 1.10452,-1.1e-4 1.99989,-0.89548 2,-2 V 294.93359 c -1.1e-4,-1.10452 -0.89548,-1.99989 -2,-2 z" /><path
       id="path2646"
       style="color:#000000;fill:#2b1100;stroke-linejoin:round"
       d="m 171.33398,292.93359 c -1.10451,1.1e-4 -1.99989,0.89548 -2,2 v 203.19922 c 1.1e-4,1.10452 0.89549,1.99989 2,2 h 50.80079 v -4 H 173.33398 V 296.93359 h 15.04883 v -4 z m 42.44922,0 v 4 h 107.95118 v 199.19922 h -48.80079 v 4 h 50.80079 c 1.10451,-1.1e-4 1.99989,-0.89548 2,-2 V 294.93359 c -1.1e-4,-1.10452 -0.89549,-1.99989 -2,-2 z" /><path
       id="path2650"
       style="color:#000000;fill:#2b1100;stroke-linejoin:round"
       d="m 17.333984,292.93359 c -1.104519,1.1e-4 -1.99989,0.89548 -2,2 v 203.19922 c 1.1e-4,1.10452 0.895481,1.99989 2,2 h 50.800782 v -4 H 19.333984 V 296.93359 H 118.5332 v -4 z m 135.066406,0 v 4 h 15.33399 v 199.19922 h -48.80079 v 4 h 50.80079 c 1.10451,-1.1e-4 1.99989,-0.89548 2,-2 V 294.93359 c -1.1e-4,-1.10452 -0.89549,-1.99989 -2,-2 z" /><path
       style="fill:#000000;fill-opacity:1;stroke:#2b1100;stroke-width:4;stroke-linejoin:round;stroke-opacity:1"
       d="m 338.66666,165.19999 h -50.8"
       id="path2715" /><path
       style="fill:#000000;fill-opacity:1;stroke:#2b1100;stroke-width:4;stroke-linejoin:round;stroke-opacity:1"
       d="M 253.99999,215.99999 V 182.13333"
       id="path2717" /><path
       style="fill:#000000;fill-opacity:1;stroke:#2b1100;stroke-width:4;stroke-linejoin:round;stroke-opacity:1"
       d="m 338.66666,114.4 h 50.79999"
       id="path2782" /><path
       style="fill:#000000;fill-opacity:1;stroke:#2b1100;stroke-width:4;stroke-linejoin:round;stroke-opacity:1"
       d="m 491.06665,114.4 h -50.8"
       id="path2784" /><path
       style="fill:#000000;fill-opacity:1;stroke:#2b1100;stroke-width:4;stroke-linejoin:round;stroke-opacity:1"
       d="m 169.33333,362.66666 h -50.8"
       id="path2786" /><path
       style="fill:#000000;fill-opacity:1;stroke:#2b1100;stroke-width:4;stroke-linejoin:round;stroke-opacity:1"
       d="m 84.666664,294.93332 v 67.73334"
       id="path2788" /><path
       style="fill:#000000;fill-opacity:1;stroke:#2b1100;stroke-width:4;stroke-linejoin:round;stroke-opacity:1"
       d="M 16.933333,413.46665 H 84.666664"
       id="path2790" /><path
       style="fill:#000000;fill-opacity:1;stroke:#2b1100;stroke-width:4;stroke-linejoin:round;stroke-opacity:1"
       d="m 220.13333,362.66666 v 67.73333"
       id="path2792" /><path
       style="fill:#000000;fill-opacity:1;stroke:#2b1100;stroke-width:4;stroke-linejoin:round;stroke-opacity:1"
       d="M 270.93332,430.39999 V 362.66666"
       id="path2794" /></g><g
     inkscape:groupmode="layer"
     id="layer4"
     inkscape:label="Roof"
     style="display:inline"><path
       id="rect2906"
       style="fill:#999999;fill-opacity:1;stroke:#2b1100;stroke-width:4;stroke-linejoin:round;stroke-opacity:1"
       d="m 490.36434,10.783196 c -16.47151,0.04102 -32.94607,0.0059 -49.41875,0.01758 -141.24844,0 -282.49688,0 -423.74532,0 -0.87934,0.149937 -1.74741,0.517222 -2.47417,1.009769 -0.62708,0.55825 -1.13437,1.209534 -1.30408,2.049048 -0.45455,1.503176 -0.12434,3.089879 -0.22175,4.63298 0,66.502467 0,133.004947 0,199.507417 0.32883,1.44449 0.94534,3.12279 2.51523,3.59835 1.70802,0.70845 3.58225,0.2949 5.37227,0.40165 156.74844,0 313.49688,0 470.24532,0 1.44448,-0.32883 3.12278,-0.94534 3.59835,-2.51523 0.70845,-1.70802 0.2949,-3.58224 0.40165,-5.37227 0,-66.43724 0,-132.87448 0,-199.311714 -0.32884,-1.444487 -0.94535,-3.122788 -2.51523,-3.598352 -0.77723,-0.304903 -1.61795,-0.461164 -2.45352,-0.419226 z" /><path
       id="path2910"
       style="fill:#666666;fill-opacity:1;stroke:#2b1100;stroke-width:4;stroke-linejoin:round;stroke-opacity:1"
       d="m 434.32918,28.802727 c -134.38086,-6.51e-4 -268.76172,-0.0013 -403.14258,-0.002 0.005,58.403653 0.009,116.807293 0.0137,175.210943 148.71485,-0.004 297.42969,-0.008 446.14453,-0.0117 -0.004,-58.4056 -0.008,-116.8112 -0.0117,-175.216801 -14.33464,0.0065 -28.66927,0.01302 -43.00392,0.01953 z" /><path
       id="path2921"
       style="fill:#999999;fill-opacity:1;stroke:#2b1100;stroke-width:4;stroke-linejoin:round;stroke-opacity:1"
       d="m 490.36434,292.78319 c -16.47151,0.041 -32.94607,0.006 -49.41875,0.0176 -141.24844,0 -282.49688,0 -423.74532,0 -0.87934,0.14994 -1.74741,0.51723 -2.47417,1.00977 -0.62708,0.55825 -1.13437,1.20954 -1.30408,2.04905 -0.45455,1.50318 -0.12434,3.08988 -0.22175,4.63298 0,66.50247 0,133.00495 0,199.50742 0.32883,1.44449 0.94534,3.12279 2.51523,3.59835 1.70802,0.70845 3.58225,0.2949 5.37227,0.40165 156.74844,0 313.49688,0 470.24532,0 1.44448,-0.32883 3.12278,-0.94534 3.59835,-2.51523 0.70845,-1.70802 0.2949,-3.58224 0.40165,-5.37227 0,-66.43724 0,-132.87448 0,-199.31172 -0.32884,-1.44448 -0.94535,-3.12278 -2.51523,-3.59835 -0.77723,-0.3049 -1.61795,-0.46116 -2.45352,-0.41922 z" /><path
       id="path2923"
       style="fill:#666666;fill-opacity:1;stroke:#2b1100;stroke-width:4;stroke-linejoin:round;stroke-opacity:1"
       d="m 434.32918,310.80272 c -134.38086,-6.5e-4 -268.76172,-0.001 -403.14258,-0.002 0.005,58.40365 0.009,116.80729 0.0137,175.21094 148.71485,-0.004 297.42969,-0.008 446.14453,-0.0117 -0.004,-58.4056 -0.008,-116.8112 -0.0117,-175.21679 -14.33464,0.007 -28.66927,0.013 -43.00391,0.0195 z" /><rect
       style="fill:#999999;fill-opacity:1;stroke:#2b1100;stroke-width:4;stroke-linejoin:round;stroke-opacity:1"
       id="rect2977"
       width="50.799999"
       height="67.73333"
       x="271.20001"
       y="65.599991" /><rect
       style="fill:#999999;fill-opacity:1;stroke:#2b1100;stroke-width:4;stroke-linejoin:round;stroke-opacity:1"
       id="rect3307"
       width="50.799999"
       height="67.73333"
       x="331.20001"
       y="65.599991" /><circle
       style="fill:#999999;fill-opacity:1;stroke:#2b1100;stroke-width:4;stroke-linejoin:round;stroke-opacity:1"
       id="path3361"
       cx="178.06668"
       cy="141.79999"
       r="25.4" /><circle
       style="fill:#999999;fill-opacity:1;stroke:#2b1100;stroke-width:4;stroke-linejoin:round;stroke-opacity:1"
       id="path3363"
       cx="127.26666"
       cy="124.86667"
       r="8.4666662" /><circle
       style="fill:#999999;fill-opacity:1;stroke:#2b1100;stroke-width:4;stroke-linejoin:round;stroke-opacity:1"
       id="path3365"
       cx="96.466667"
       cy="124.86667"
       r="8.4666662" /><rect
       style="fill:#999999;fill-opacity:1;stroke:#2b1100;stroke-width:4;stroke-linejoin:round;stroke-opacity:1"
       id="rect3367"
       width="50.799999"
       height="67.73333"
       x="171.2"
       y="347.60001" /><rect
       style="fill:#999999;fill-opacity:1;stroke:#2b1100;stroke-width:4;stroke-linejoin:round;stroke-opacity:1"
       id="rect3369"
       width="50.799999"
       height="67.73333"
       x="291.20001"
       y="347.60001" /><rect
       style="fill:#999999;fill-opacity:1;stroke:#2b1100;stroke-width:4;stroke-linejoin:round;stroke-opacity:1"
       id="rect3371"
       width="16.933332"
       height="33.866665"
       x="152.66667"
       y="364.66666" /></g><g
     inkscape:label="Layer 1"
     inkscape:groupmode="layer"
     id="layer1" /></svg>
