<?xml version="1.0" encoding="UTF-8" standalone="no"?>
<!-- Created with Inkscape (http://www.inkscape.org/) -->

<svg
   width="512"
   height="512"
   viewBox="0 0 512 512"
   version="1.1"
   id="svg5"
   inkscape:version="1.2.1 (9c6d41e, 2022-07-14)"
   inkscape:export-filename="ParkWalls.png"
   inkscape:export-xdpi="96"
   inkscape:export-ydpi="96"
   sodipodi:docname="Park.svg"
   xmlns:inkscape="http://www.inkscape.org/namespaces/inkscape"
   xmlns:sodipodi="http://sodipodi.sourceforge.net/DTD/sodipodi-0.dtd"
   xmlns:xlink="http://www.w3.org/1999/xlink"
   xmlns="http://www.w3.org/2000/svg"
   xmlns:svg="http://www.w3.org/2000/svg">
  <sodipodi:namedview
     id="namedview7"
     pagecolor="#505050"
     bordercolor="#eeeeee"
     borderopacity="1"
     inkscape:showpageshadow="false"
     inkscape:pageopacity="0"
     inkscape:pagecheckerboard="false"
     inkscape:deskcolor="#57594a"
     inkscape:document-units="px"
     showgrid="true"
     inkscape:zoom="0.921875"
     inkscape:cx="292.88136"
     inkscape:cy="209.35593"
     inkscape:window-width="1257"
     inkscape:window-height="820"
     inkscape:window-x="308"
     inkscape:window-y="79"
     inkscape:window-maximized="0"
     inkscape:current-layer="layer5">
    <inkscape:grid
       type="xygrid"
       id="grid129"
       spacingx="2"
       spacingy="2"
       empspacing="8"
       dotted="false" />
  </sodipodi:namedview>
  <defs
     id="defs2">
    <color-profile
       name="sRGB-IEC61966-2.1"
       xlink:href="file:///System/Library/ColorSync/Profiles/sRGB%20Profile.icc"
       id="color-profile4644" />
  </defs>
  <g
     inkscape:label="Layer 1"
     inkscape:groupmode="layer"
     id="layer1" />
  <g
     inkscape:groupmode="layer"
     id="layer5"
     inkscape:label="Floors"
     style="display:inline">
    <rect
       style="fill:#008000;stroke:#552200;stroke-width:4;stroke-linejoin:round"
       id="rect4118"
       width="448"
       height="448"
       x="32"
       y="32"
       rx="33.866669"
       ry="32" />
    <rect
       style="fill:#999999;stroke:#2b1100;stroke-width:4;stroke-linejoin:round"
       id="rect3940"
       width="101.6"
       height="101.6"
       x="64"
       y="64"
       ry="33.866669"
       rx="33.866669" />
    <rect
       style="fill:#999999;stroke:#2b1100;stroke-width:4;stroke-linejoin:round"
       id="rect3942"
       width="101.6"
       height="101.6"
       x="349.20001"
       y="64"
       ry="33.866669"
       rx="33.866669" />
    <rect
       style="fill:#999999;stroke:#2b1100;stroke-width:4;stroke-linejoin:round"
       id="rect3944"
       width="101.6"
       height="101.6"
       x="63.999985"
       y="346.39999"
       ry="33.866669"
       rx="33.866669" />
    <rect
       style="fill:#999999;stroke:#2b1100;stroke-width:4;stroke-linejoin:round"
       id="rect3946"
       width="101.6"
       height="101.6"
       x="349.20001"
       y="346.39999"
       ry="33.866669"
       rx="33.866669" />
    <circle
       style="fill:#999999;stroke:#2b1100;stroke-width:4;stroke-linejoin:round"
       id="path3948"
       cx="256"
       cy="256"
       r="80" />
    <circle
       style="fill:#999999;stroke:#2b1100;stroke-width:4;stroke-linejoin:round"
       id="circle3950"
       cx="256"
       cy="256"
       r="62" />
    <path
       style="fill:#00ff00;stroke:#008000;stroke-width:4;stroke-linejoin:round"
       id="path4009"
       d="m 82.455772,92.224301 c 13.462841,13.219819 -3.031939,-4.111721 8.045184,11.429289 1.451268,2.0361 3.669965,3.40649 5.345154,5.26273 3.140965,3.48044 2.161185,3.21417 4.51422,6.37668 0.72465,0.97394 1.54836,1.8701 2.32254,2.80515 0.0668,-0.0479 0.19595,-0.22572 0.20031,-0.14367 0.008,0.14118 -0.12515,0.25356 -0.18772,0.38033 0.43741,0.12417 1.02332,0.0214 1.31223,0.37252 0.19392,0.23565 -1.07761,-0.13458 -0.90778,0.11898 1.23149,1.83873 3.54293,2.39072 5.40807,3.14094 -0.0832,2.32251 2.85287,2.21669 3.57652,3.79792 0.31023,0.67786 -0.49401,1.61191 -0.0845,2.23483 0.54425,0.82785 1.59734,1.77998 2.55359,1.52087 0.22009,-0.0596 -5.75512,-6.39013 0.9143,0.7866 -0.76356,-0.98072 -1.14162,-3.41597 -2.29067,-2.94216 -4.43099,1.82711 2.81939,3.61989 3.73161,3.73743 1.09847,0.14154 3.949,1.07957 3.31833,0.16913 -5.52694,-7.97869 -9.84324,-3.6863 -6.72353,-6.52279 -2.39161,-4.67793 4.51647,4.52005 5.71283,7.39644 0.36801,0.88479 -1.94756,-0.0748 -2.84551,-0.40944 -0.33206,-0.12375 -0.91034,-0.69945 -0.60287,-0.87562 0.52845,-0.30279 1.19545,1.16863 1.85305,2.33611 0.26386,0.29362 0.49522,0.62009 0.7916,0.88085 0.31833,0.28007 0.79621,0.38493 1.04078,0.73129 0.14247,0.20176 0.65072,2.16674 0.79625,2.24017 1.30745,0.65962 1.23229,-0.8847 1.10163,0.56655 2.78292,-0.16931 -0.10117,-0.33531 3.36791,2.4466 0.24655,0.19772 1.13257,0.17319 0.94466,-0.0809 -0.28023,-0.37893 -1.62608,-0.82686 -1.33937,-0.45283 0.39442,0.51455 1.05893,0.91227 1.70694,0.93235 0.41979,0.013 -0.58336,-0.60437 -0.87504,-0.90656 0.65498,0.98358 0.97083,2.31186 1.96493,2.95076 2.26286,1.45431 7.64001,-0.005 8.88906,-1.72049 1.10103,-1.512 1.73878,-6.81983 0.31904,-5.60214 -2.30158,1.97406 -3.16092,5.36771 -3.55154,8.37464 -0.19582,1.50743 1.94587,-2.33589 2.9188,-3.50384 0.53744,-0.23017 1.34412,-0.171 1.61234,-0.69051 1.54265,-2.98803 1.71588,-9.39869 2.07885,-12.83223 0.64401,-4.39799 0.37119,-2.19507 0.81903,-6.6087 -0.80409,-5.33685 0.0393,-2.95719 -2.51598,-7.55362 -0.52493,-0.94425 -1.0061,-1.9152 -1.58924,-2.82465 -0.90598,-1.41293 -2.58992,-4.42807 -4.82717,-4.51281 -2.09387,-0.0793 -4.12126,0.7599 -6.18189,1.13985 -2.22898,0.1484 -4.45795,0.2968 -6.68692,0.4452 -4.37972,0.72855 -8.72078,1.74893 -13.13914,2.18566 -3.69334,0.36507 -7.424664,0.38645 -11.131963,0.21341 -1.930933,-0.0901 -3.839295,-1.47756 -5.712305,-0.99959 -2.022921,0.51623 -4.670059,1.68203 -5.024391,3.73949 -0.471555,2.73813 2.029361,5.17305 3.044041,7.75958 5.236398,-2.50028 1.30207,2.96646 0.909807,2.2566 -0.523092,-0.94662 -0.583638,-2.08284 -0.875458,-3.12426 -0.895039,8.69094 11.395815,9.95672 12.290854,1.26577 v 0 c -0.569542,-1.87453 -1.103998,-5.44309 -3.062833,-6.89355 -0.635664,-0.47069 -1.523748,-0.42504 -2.285623,-0.63757 0.07949,1.20754 1.048352,2.72342 0.238469,3.62262 -0.886634,0.98441 -4.232101,1.78468 -3.943991,0.49156 0.405841,-1.82154 2.743478,-2.81656 4.55861,-3.25016 10.552143,-2.52072 20.582183,2.22758 31.057523,2.14531 0.90089,0.13257 1.79807,0.2935 2.70268,0.39772 0.1329,0.0153 -0.4084,5.5e-4 -0.37968,-0.13011 0.0899,-0.40896 0.25501,-1.22962 0.64525,-1.07781 1.95862,0.76192 0.88603,3.92997 1.35081,5.35951 0.42707,0.7523 1.17634,1.3982 1.2812,2.25688 0.10801,0.88444 -0.44499,1.72578 -0.69022,2.58238 -0.33823,1.18148 -1.03143,2.30256 -1.05996,3.53117 -0.0258,1.10855 1.21238,2.13649 0.90361,3.20148 -0.30533,1.05309 -2.50651,0.33114 -2.92989,1.49524 1.01476,-0.24026 3.32097,-1.72622 3.04426,-0.72079 -0.80858,2.93804 -2.22653,6.33162 -4.95942,7.67967 -1.66273,0.82018 -0.52981,-4.05989 0.60047,-5.52953 4.05013,-5.26615 6.46911,-1.68993 9.07138,0.91141 -0.34826,-0.9182 -0.82672,-1.79708 -1.04478,-2.75458 -0.0333,-0.14626 0.23618,-0.18498 0.35426,-0.27747 -1.03495,-0.76292 -2.0699,-1.52584 -3.10484,-2.28876 -0.56459,-0.30602 -1.44664,0.0585 -1.88157,-0.41397 -0.33539,-0.36435 0.99038,-0.0108 1.48556,-0.0162 -0.21357,-0.17335 -0.42714,-0.34669 -0.64072,-0.52003 -0.35599,0.0683 -0.72262,0.31498 -1.06799,0.20489 -0.4575,-0.14583 -1.68055,-2.11248 -1.97358,-2.39413 -0.1988,-0.19108 -0.51604,-0.20469 -0.74713,-0.35514 -0.21598,-0.14063 -0.38755,-0.33987 -0.58132,-0.5098 -0.17071,-0.29834 -0.5182,-0.55136 -0.51212,-0.89503 0.009,-0.48712 0.90479,-1.01754 0.55185,-1.35338 -0.65019,-0.61868 -1.81067,-0.2302 -2.62119,-0.61567 -1.32832,-0.63174 -3.93996,-3.84621 -3.7069,-2.39389 1.97413,12.30171 2.75916,10.92106 5.69823,7.99364 1.44116,-5.52382 -0.0831,2.29499 -7.07873,-8.55807 -0.55647,-0.86329 2.07586,-0.16135 3.08088,0.0505 0.3562,0.0751 0.51455,0.51531 0.7809,0.76345 0.55581,0.51781 2.27302,2.01534 1.68525,1.5341 -1.30445,-1.06804 -2.55776,-2.19706 -3.83664,-3.29559 0.57552,0.70705 2.14379,2.93173 1.72656,2.12114 -0.49252,-0.95686 -1.12867,-1.88059 -1.95662,-2.56809 -0.32603,-0.27073 0.74994,1.12018 0.33938,1.22518 -1.43362,0.36666 -2.98552,-2.19856 -3.56137,-2.76747 -0.6927,-0.68435 -1.48054,-1.26518 -2.2208,-1.89777 -0.28584,-0.56008 -0.83602,-1.05181 -0.85752,-1.68024 -0.0155,-0.45299 1.11023,1.43324 0.8367,1.07184 -1.19665,-1.58107 -2.98057,-4.43632 -4.42792,-5.79529 -0.62803,-0.58968 -1.41344,-0.98528 -2.12016,-1.47792 -0.0609,0.28156 0.10529,0.84002 -0.18275,0.84468 -1.69538,0.0274 -6.00168,-2.6798 -6.5575,-3.34916 -1.418499,-1.70825 -1.933018,-4.00107 -3.017977,-5.938375 -5.899677,-10.534479 -1.680315,-1.316124 -5.974555,-11.476181 -3.29477,-6.58954 -12.613785,-1.930032 -9.319016,4.659507 z" />
    <path
       style="fill:#00ff00;stroke:#008000;stroke-width:4;stroke-linejoin:round"
       id="path4060"
       d="m 88.782594,370.48618 c -0.125583,0.1696 -0.334608,0.30201 -0.37675,0.50879 -0.333971,1.6387 -0.225733,3.48567 0.115376,5.10196 0.575565,2.72721 1.461448,4.89058 2.836098,7.34133 0.779997,1.39059 1.727845,2.68013 2.591767,4.02019 1.212004,1.27368 2.313684,2.6623 3.636012,3.82104 3.761273,3.29593 8.533293,5.76453 13.356413,7.02873 2.99455,0.78491 5.56965,0.95721 8.61965,1.29003 2.65302,-0.14931 5.33471,-0.0313 7.95905,-0.44795 0.94415,-0.14991 1.79329,-0.70208 2.59208,-1.22727 3.99106,-2.62405 5.95197,-6.8131 4.2101,-11.60807 -0.47173,-1.29856 -1.85793,-2.04532 -2.78689,-3.06798 -2.08164,-0.31802 -4.18615,-1.39664 -6.2449,-0.95405 -3.38911,0.72858 -5.00482,3.97538 -6.07691,6.74038 -0.36338,0.93719 -0.47376,1.9549 -0.76699,2.91636 -1.93292,6.33769 -0.3971,-0.0157 -1.90361,6.87419 -0.67093,4.2892 -1.21695,8.71546 -2.99249,12.72147 -0.30098,0.67908 -0.61213,1.36045 -1.0202,1.98111 -0.30242,0.45997 -0.73005,0.82411 -1.09508,1.23616 -0.20201,0.21377 -0.40402,0.42754 -0.60604,0.64132 -0.0429,-0.006 -0.17149,-0.0116 -0.12857,-0.0167 1.56596,-0.18682 3.2442,0.0739 4.70155,-0.52881 0.42635,-0.17633 0.17355,-0.99753 -0.082,-1.3817 -0.91896,-1.38166 -4.85721,-4.19324 -5.85354,-4.95789 -3.67783,-2.38939 -7.49398,-4.54138 -11.571283,-6.17137 -1.858889,-0.74314 -3.339386,-1.31179 -5.300614,-1.50373 -0.514732,-0.0504 -1.033927,0.0307 -1.55089,0.0461 -3.399758,4.6965 5.28413,-7.21229 -9.591214,9.56502 -0.133698,0.15079 0.873465,1.83105 1.019536,2.04548 0.531884,0.87566 12.915544,-6.64632 12.38366,-7.52197 v 0 c -0.941638,-1.19429 -1.395842,-1.98836 -2.721238,-2.80608 -0.30801,-0.19003 -0.74722,-0.52498 -1.039914,-0.31211 -9.967933,7.24931 -9.39727,4.06119 -9.916496,9.2778 0.130768,0.47113 0.172664,0.97656 0.392304,1.41339 0.872445,1.73517 2.177004,3.04373 3.592046,4.35016 3.284642,3.03253 7.056421,5.41022 10.962773,7.55597 3.069807,1.37486 6.06937,2.87087 9.34676,3.72521 4.76694,1.24264 8.35561,1.42207 13.4099,0.65839 2.64099,-0.39904 5.05738,-2.32371 7.18056,-3.70556 2.72837,-3.00229 3.83303,-3.83274 5.73616,-7.49307 2.968,-5.7084 3.96596,-12.18092 3.72288,-18.54395 -0.56362,-3.19429 -0.39948,-3.75026 -1.72393,-6.46175 -0.1296,-0.2653 -0.28987,-0.74728 -0.5757,-0.67321 -0.51061,0.13234 -0.6935,0.80914 -1.12413,1.11376 -4.24177,3.00066 -2.69007,2.16369 -8.20239,1.0595 -1.78709,-2.92251 -2.43332,-2.95239 -1.36095,-7.16031 0.27245,-1.06906 1.2746,-1.81427 1.74571,-2.81185 0.13982,-0.29606 0.26143,-0.735 0.0456,-0.98119 -0.34931,-0.39843 -1.8289,-0.25158 -1.45901,-0.63098 0.55546,-0.56974 1.57867,-0.20093 2.36801,-0.3014 -0.82324,-0.0192 -1.65125,0.033 -2.46974,-0.0575 -1.64806,-0.1821 -3.38631,-0.75777 -4.93425,-1.29808 -0.92141,-0.32162 -1.86108,-0.60727 -2.74031,-1.03082 -0.66589,-0.32077 -4.59871,-2.76784 -5.23618,-3.16088 -1.97598,-1.49522 -2.56225,-1.81435 -4.22484,-3.50347 -4.53131,-4.60363 1.34015,1.13201 -2.65716,-3.20066 -1.88792,-2.04632 -0.39084,0.3271 -1.73796,-2.11261 -0.18379,-0.88047 -12.635634,1.71868 -12.451846,2.59916 z" />
    <path
       style="fill:#00ff00;stroke:#008000;stroke-width:4;stroke-linejoin:round"
       id="path4062"
       d="m 372.91087,374.73934 c 1.1806,1.16244 1.92839,3.11049 3.5418,3.48732 1.41298,0.33002 2.70547,-1.06326 3.99586,-1.72681 0.29276,-0.15055 0.59393,-0.38123 0.70571,-0.69087 0.16837,-0.46637 -0.0873,-1.95213 0.0799,-1.48534 0.35169,0.9819 -0.009,2.17648 0.49467,3.08958 0.69664,1.26206 1.96946,2.10563 2.95419,3.15844 0.009,0.22107 -0.005,0.88214 0.0268,0.66321 0.3504,-2.39802 1.17486,-4.79967 0.92989,-7.21075 -0.0577,-0.56749 -1.33408,0.0999 -1.60115,0.60392 -1.73766,3.27944 -4.20499,14.17002 -3.58254,16.86052 0.53223,2.30049 3.3081,3.37024 4.96215,5.05536 4.25324,0.46437 9.41854,4.0656 12.75972,1.39311 3.62999,-2.90351 3.15702,-9.0789 2.62194,-13.69636 -0.73987,-6.38465 -15.93641,-5.43544 -16.89265,-4.82903 -3.40489,2.15922 -4.07613,7.18793 -4.60365,11.18508 -0.29262,2.21723 1.53032,4.20298 2.29548,6.30447 8.20249,0.74725 8.06736,1.99037 15.05314,-9.89804 0.603,-1.02619 -2.17151,-1.01843 -3.11803,-1.74008 -0.90863,-0.69277 -1.66563,-3.34314 -2.38873,-2.45844 -3.32888,4.07278 -6.80889,8.8343 -7.11463,14.08553 -0.27554,4.73255 3.68782,8.73452 5.53173,13.10177 17.88319,15.43003 8.03704,12.87583 31.88532,9.15099 5.72882,-0.89478 11.87254,-0.54279 17.14005,-2.96629 8.97174,-4.12775 4.35636,-19.25495 -0.33198,-23.20172 -3.60062,-3.0311 -9.41011,-0.2408 -14.11517,-0.3612 -1.38217,1.78396 -4.23532,3.09688 -4.14652,5.35188 0.20928,5.31466 0.84045,11.79665 4.95456,15.16764 2.81221,2.30425 7.11888,-1.4919 10.64241,-2.38792 1.57373,-0.40019 4.58417,0.12577 4.63566,-1.49723 0.16104,-5.07525 -0.28059,-11.34506 -4.12284,-14.66488 -3.65177,-3.15524 -9.60994,-0.90154 -14.41491,-1.35231 -22.13635,8.99752 5.46432,-1.29727 -17.56549,4.35872 -1.875,0.46049 -3.29,2.20257 -5.18188,2.58789 -1.64338,0.33472 -4.00534,-1.85959 -5.00513,-0.51306 -6.30674,8.49407 11.73683,6.786 -6.96373,5.92955 -1.49921,1.07739 -2.99843,2.15478 -4.49765,3.23216 -0.71228,1.7521 -0.73636,3.98514 -2.13685,5.2563 -0.61936,0.56217 -2.52329,-0.79572 -2.03184,-1.47256 0.1093,-0.15051 5.70172,-1.01606 6.3193,-1.1384 0.21644,-0.0429 0.41852,-0.1399 0.62778,-0.20986 -0.50153,2.87724 -1.00305,5.75447 -1.50457,8.63171 0.68132,-0.35962 -4.4045,-9.99502 -5.08583,-9.6354 v 0 c -1.36507,2.98714 -2.73014,5.97429 -4.0952,8.96144 2.55021,5.30159 1.92398,7.04146 11.15008,4.2862 1.70875,-0.5103 2.31949,-2.70941 3.47923,-4.06412 1.94913,-0.4697 3.89826,-0.93941 5.84738,-1.40912 2.03992,-0.27424 -12.71426,3.15144 -2.71991,5.54349 -6.39213,-3.91441 1.00998,1.01581 10.50069,0.18913 2.62785,-0.2289 4.72354,-2.41164 7.24831,-3.17552 2.68064,-0.81103 5.68052,-0.43571 8.26372,-1.51769 2.36408,-0.9902 3.80853,-3.6312 6.20424,-4.54224 2.1495,-0.81741 4.59019,-0.29027 6.88528,-0.43541 -4.11805,-7.76547 -3.17915,-3.92672 -1.40299,-16.57813 0.027,-0.1923 0.39169,0.0292 0.58252,-0.007 0.83583,-0.15738 2.37591,-1.41445 2.48678,-0.57119 0.87519,6.65623 -0.0357,9.28722 -1.44716,14.04704 -1.31622,0.14609 -3.83399,1.75758 -3.94866,0.43825 -0.39698,-4.56748 1.93204,-8.96405 2.81665,-13.4626 0.086,-0.43744 -0.0679,-0.91846 0.0931,-1.33423 0.36091,-0.9324 1.60814,-1.64448 1.44155,-2.63032 -3.30302,-19.54595 -4.14422,-12.21299 -23.29511,-6.24466 -3.83754,-0.31618 -7.85114,-2.14029 -11.51262,-0.94855 -5.92464,1.92836 -10.38056,6.93009 -15.8774,9.86348 -0.3681,0.19644 -0.76587,-1.11088 -0.35813,-1.19938 1.21719,-0.26417 2.57724,0.99795 3.70657,0.47265 6.35786,-2.95734 15.95658,-11.21376 10.85888,-6.86756 1.45037,-3.72264 -0.45578,1.70479 -5.96342,3.35205 -2.59622,0.7765 -5.43695,-0.28934 -8.12955,0.016 -1.12072,0.12707 2.40777,1.15814 3.34243,0.52682 13.8408,-9.34868 -5.99703,-7.36457 18.45556,-5.43768 -1.97511,-0.49634 -4.13472,-0.51889 -5.92532,-1.489 -0.79691,-0.43175 -0.35924,-2.38293 -1.26527,-2.40673 -0.95481,-0.0251 -2.57409,2.02668 -1.66829,2.32969 1.08229,0.36204 2.38788,-0.88797 2.81738,-1.9453 3.70963,-9.13217 3.04024,-8.07263 -0.74717,-13.83193 -5.61485,-9.40386 1.0133,-1.3958 -8.27626,-4.2914 -0.70351,-0.21929 0.18155,-1.74814 -0.42272,-2.16988 -0.50452,-0.35214 -1.27659,1.10531 -1.71746,0.67616 -4.99393,-4.86117 2.9798,-2.88766 -4.05377,-3.83885 -1.00248,-0.6439 -10.10871,13.53334 -9.10623,14.17725 z" />
    <path
       style="fill:#00ff00;stroke:#008000;stroke-width:4;stroke-linejoin:round"
       id="path4064"
       d="m 418.73726,90.876161 c -8.3401,-5.541219 -0.87941,-1.660391 -12.32663,-3.876762 -1.61063,-0.311845 -3.08404,-2.164897 -4.63932,-1.642902 -15.76509,5.291191 -6.56438,4.580309 -9.80509,14.943863 -0.24644,0.7881 -1.28174,-1.041387 -1.92261,-1.562082 -0.41399,-0.201594 -0.79325,-0.708179 -1.24195,-0.604781 -2.61559,0.60274 -4.29009,3.205903 -4.56742,5.765153 -0.69691,6.4313 0.46626,8.68684 4.89505,12.91803 0.49796,0.47575 1.31088,0.42285 1.96632,0.63427 -0.60876,-0.63599 -1.21752,-1.27198 -1.82628,-1.90797 0.23948,-0.23854 1.05618,-0.7295 0.71845,-0.71561 -0.82031,0.0337 -1.89738,1.47644 -2.33552,0.78213 -0.4452,-0.70548 0.84366,-2.17167 1.63158,-1.89764 13.75789,4.78477 17.10829,12.89617 13.46448,5.30853 0.37127,-1.9465 1.99102,-8.77114 1.33525,-11.1396 -0.4241,-1.53169 -2.0262,-2.49427 -2.68267,-3.94167 -0.64324,-1.41823 -0.25853,-3.25475 -1.15788,-4.526081 -7.5579,-10.683849 -2.21436,4.118411 -5.76184,-8.006327 -4.13736,-6.731162 2.2005,2.683605 -3.11245,-2.405245 -0.81439,-0.780037 -1.2455,-1.894861 -1.68636,-2.932805 -0.73844,-1.73855 -1.53019,-10.153878 -7.1728,-5.546947 -3.9199,3.200422 -6.02632,8.131229 -9.03947,12.196843 1.07741,0.782959 2.15482,1.565918 3.23223,2.348876 -0.0628,-0.01432 -0.15771,0.01367 -0.18842,-0.04296 -0.1477,-0.272341 -3.92986,-9.217882 -0.72528,2.41747 0.58773,2.133935 1.78967,4.049016 2.65946,6.084336 0.81924,1.91704 1.60498,3.84821 2.40747,5.77232 0.60196,1.52345 0.83761,3.2491 1.80586,4.57036 0.74509,1.01675 2.07141,1.43709 3.11482,2.14435 3.92151,2.65814 4.49793,2.00338 5.62765,7.48566 1.06634,5.17479 -0.83075,11.3704 2.20197,15.69684 2.79299,3.98445 8.79199,4.17221 13.18799,6.25831 2.2448,-0.26625 5.19613,0.85768 6.7344,-0.79874 5.01558,-5.40081 9.56964,-11.76264 11.52941,-18.86786 0.94923,-3.44148 -0.2044,-8.82892 -3.53697,-10.10909 -8.18883,-3.14563 -19.18126,16.37874 -19.50333,18.87172 -0.35533,2.75035 4.3647,3.42229 6.54706,5.13344 8.52784,2.57834 8.75966,4.11387 14.30083,-13.24067 0.86612,-2.71265 -0.89939,-5.98529 -2.86112,-8.04933 -5.84788,-6.15288 -12.80165,7.00805 -13.69282,8.41446 -0.60408,0.95333 -0.0904,2.25541 -0.13562,3.38311 9.06539,-3.95607 10.57233,-2.9885 10.76906,-19.64661 0.0469,-3.97433 -1.78299,-8.51573 -5.02687,-10.8124 -9.45461,-6.693867 -21.77113,5.10431 -24.80983,11.88773 -1.63586,3.6518 1.57307,7.8468 2.3596,11.77019 9.85391,3.4345 10.78119,6.54545 15.52145,-9.98054 0.44459,-1.54996 -1.77028,-2.89553 -3.21252,-3.61661 -6.89865,-3.44912 -16.53017,-0.98491 -21.56033,4.84481 -3.07443,3.56311 -2.03587,9.18948 -3.0538,13.78422 2.33177,1.89631 4.04945,5.09306 6.99532,5.68893 1.37095,0.27731 1.15305,-2.87281 0.59219,-4.15416 -0.7034,-1.607 -2.31606,-2.82324 -3.93836,-3.49058 -4.46833,-1.83805 -9.40856,-1.04735 -10.2144,5.13069 -0.56845,4.35812 1.1683,8.71209 1.75245,13.06814 4.07186,1.62085 12.22476,6.92834 15.744,-1.11606 1.57467,-3.59942 -1.0596,-7.7858 -1.58941,-11.6787 -0.80126,-0.67866 -10.399,10.65286 -9.59774,11.33153 v 0 c 0.86014,-6.42443 -1.30539,-12.77904 7.82436,-12.06382 0.92682,0.0726 0.40018,1.81574 0.60027,2.72362 -1.17367,2.73887 -2.59299,5.38507 -3.521,8.21663 -0.11381,0.34727 0.15912,0.8684 0.51002,0.9705 2.38933,0.69522 5.03026,2.22087 7.34833,1.31603 7.54325,-2.94446 8.49983,-8.93008 10.65207,-15.3303 0.52998,-1.57602 0.97454,-3.17949 1.46181,-4.76923 -2.74971,-0.42826 -5.48681,-1.62229 -8.24912,-1.28478 -2.744,0.33526 -6.07965,0.94418 -7.63999,3.22613 -0.86229,1.26108 2.71339,1.60302 4.23343,1.75588 11.286,1.13493 15.36098,-0.21279 20.9485,-12.95973 0.75646,-1.72574 -1.99614,-3.1964 -2.99421,-4.79461 -9.87952,-4.39538 -8.58234,-5.40215 -23.11727,7.35894 -1.18155,1.03735 1.60253,2.91972 3.0003,3.63974 3.46673,1.78579 7.30319,4.43253 11.12022,3.63404 20.938,-4.38006 11.79509,-15.0253 17.67527,-7.26685 -7.8099,-0.73055 -7.79296,-1.65338 -16.46494,7.82369 -1.00892,1.10258 -0.0932,3.0965 0.53804,4.45116 1.08256,2.32312 1.89566,6.37966 4.45612,6.26599 6.6173,-0.29376 12.60036,-4.24985 18.4881,-7.28458 1.09533,-0.56457 1.23474,-2.13293 1.85211,-3.1994 -2.89994,-0.9791 -5.66408,-3.32803 -8.6998,-2.93731 -6.39579,0.8232 -12.58816,3.32734 -18.25406,6.40653 -0.94819,0.5153 1.54284,1.5096 2.33054,2.24726 2.38427,2.2328 3.93266,6.36037 7.18505,6.66381 17.91478,1.6714 16.84615,-0.0105 18.85423,-8.9411 -1.53623,-4.16215 -1.0731,-9.80631 -4.60868,-12.48644 -4.45087,-3.37396 -11.03152,-1.89384 -16.39889,-3.43826 -1.93589,-0.55703 -5.63483,-2.70243 -6.16114,-5.23513 -0.26075,-1.25477 0.81632,-2.62061 0.38061,-3.82585 -0.61694,-1.70661 -2.21512,-2.87502 -3.32268,-4.312532 -1.72556,-0.868825 -3.43283,-1.774958 -5.17667,-2.606476 -0.69792,-0.332789 -1.41389,-0.630985 -2.14437,-0.884426 -0.18648,-0.0647 -0.61036,0.132376 -0.58869,-0.06381 0.20317,-1.840058 1.33599,-3.577884 1.19461,-5.423718 -0.15568,-2.032571 -2.76475,-5.608841 -3.92315,-7.355976 -5.34985,2.774322 -11.37091,4.524534 -16.04955,8.322965 -0.97092,0.788255 0.5719,2.7284 1.64388,3.372517 10.21583,6.138356 1.84563,-0.529637 6.33805,-0.908084 1.50812,-0.127046 -2.65123,6.85365 0.25935,4.532971 1.9121,6.036789 0.22975,3.138819 5.85562,8.171199 0.75672,1.52953 -0.423,3.464 -0.009,5.11944 0.62262,2.48806 4.57014,6.05478 7.54878,2.9901 0.98026,-1.00857 -1.21142,-2.53868 -1.81714,-3.80802 -0.94952,5.37514 -1.02213,3.75444 11.00874,8.87319 0.92837,0.39499 1.76429,-1.11927 2.28766,-1.98181 0.41155,-0.67826 0.28751,-1.56375 0.34389,-2.35511 0.51032,-7.1639 1.06329,-4.29122 -3.72201,-10.23605 -0.8468,-0.32182 -1.91195,-1.61791 -2.54038,-0.96545 -0.64164,0.66617 0.74475,1.70336 0.96419,2.60189 0.50348,2.06154 1.29329,4.13261 1.19829,6.25262 -0.0401,0.89515 -1.87102,-1.56368 -1.37496,-2.30988 1.01211,-1.52246 3.41975,-1.493 4.7422,-2.75529 1.99967,-1.9087 3.36157,-4.38942 5.04236,-6.58414 -3.07069,-11.599627 -0.004,-7.209049 -4.73077,-2.860582 -2.25145,2.071252 -5.58116,2.896832 -7.51681,5.265862 -0.8799,1.07691 2.65575,-0.98088 4.04592,-1.01787 3.76624,-0.1002 7.43997,1.63728 11.25236,1.06566 0.9438,0.54239 8.61431,-12.804941 7.67051,-13.347329 z" />
    <path
       sodipodi:type="star"
       style="fill:#ff00ff;stroke:#552200;stroke-width:7.87036;stroke-linejoin:round"
       id="path4328"
       inkscape:flatsided="false"
       sodipodi:sides="6"
       sodipodi:cx="368"
       sodipodi:cy="176"
       sodipodi:r1="22.627417"
       sodipodi:r2="11.313708"
       sodipodi:arg1="0.78539816"
       sodipodi:arg2="1.3089969"
       inkscape:rounded="0"
       inkscape:randomized="0"
       d="m 384,192 -13.0718,-5.0718 -8.78461,10.92821 L 360,184 346.14359,181.85641 357.0718,173.0718 352,160 l 13.0718,5.0718 8.78461,-10.92821 L 376,168 l 13.85641,2.14359 -10.92821,8.78461 z"
       inkscape:transform-center-x="1.5942616"
       inkscape:transform-center-y="-1.3892314"
       transform="matrix(0.54444901,0,0,0.47443164,168.49352,82.482011)" />
    <use
       x="0"
       y="0"
       xlink:href="#path4328"
       inkscape:transform-center-x="2.1681111"
       inkscape:transform-center-y="-0.53901031"
       id="use4434"
       transform="matrix(0.87397189,-0.4234788,0.55769765,0.87397189,-33.58927,181.76455)"
       style="stroke-width:1.96759" />
    <path
       sodipodi:type="star"
       style="fill:#ff0000;stroke:#552200;stroke-width:7.87036;stroke-linejoin:round"
       id="use4436"
       inkscape:flatsided="false"
       sodipodi:sides="6"
       sodipodi:cx="368"
       sodipodi:cy="176"
       sodipodi:r1="22.627417"
       sodipodi:r2="11.313708"
       sodipodi:arg1="0.78539816"
       sodipodi:arg2="1.3089969"
       inkscape:rounded="0"
       inkscape:randomized="0"
       d="m 384,192 -13.0718,-5.0718 -8.78461,10.92821 L 360,184 346.14359,181.85641 357.0718,173.0718 352,160 l 13.0718,5.0718 8.78461,-10.92821 L 376,168 l 13.85641,2.14359 -10.92821,8.78461 z"
       inkscape:transform-center-x="1.5942616"
       inkscape:transform-center-y="-1.3892314"
       transform="matrix(0.37412225,-0.18399413,0.20803256,0.33089195,205.02376,173.82323)" />
    <path
       sodipodi:type="star"
       style="fill:#ff00ff;stroke:#552200;stroke-width:7.87036;stroke-linejoin:round"
       id="path4438"
       inkscape:flatsided="false"
       sodipodi:sides="6"
       sodipodi:cx="368"
       sodipodi:cy="176"
       sodipodi:r1="22.627417"
       sodipodi:r2="11.313708"
       sodipodi:arg1="0.78539816"
       sodipodi:arg2="1.3089969"
       inkscape:rounded="0"
       inkscape:randomized="0"
       d="m 384,192 -13.0718,-5.0718 -8.78461,10.92821 L 360,184 346.14359,181.85641 357.0718,173.0718 352,160 l 13.0718,5.0718 8.78461,-10.92821 L 376,168 l 13.85641,2.14359 -10.92821,8.78461 z"
       inkscape:transform-center-x="1.5942616"
       inkscape:transform-center-y="-1.3892314"
       transform="matrix(0.54444901,0,0,0.47443164,222.93158,260.90913)" />
    <use
       x="0"
       y="0"
       xlink:href="#path4328"
       inkscape:transform-center-x="2.1681111"
       inkscape:transform-center-y="-0.53901031"
       id="use4440"
       transform="matrix(0.87397189,-0.4234788,0.55769765,0.87397189,20.84879,360.19166)"
       style="stroke-width:1.96759" />
    <use
       x="0"
       y="0"
       xlink:href="#use4434"
       inkscape:transform-center-x="1.7046702"
       inkscape:transform-center-y="-0.4301424"
       id="use4442"
       transform="matrix(0.78624675,0,0,0.79802242,133.92231,206.61279)"
       style="stroke-width:2.48398" />
    <path
       sodipodi:type="star"
       style="fill:#ff00ff;stroke:#552200;stroke-width:7.87036;stroke-linejoin:round"
       id="path4444"
       inkscape:flatsided="false"
       sodipodi:sides="6"
       sodipodi:cx="368"
       sodipodi:cy="176"
       sodipodi:r1="22.627417"
       sodipodi:r2="11.313708"
       sodipodi:arg1="0.78539816"
       sodipodi:arg2="1.3089969"
       inkscape:rounded="0"
       inkscape:randomized="0"
       d="m 384,192 -13.0718,-5.0718 -8.78461,10.92821 L 360,184 346.14359,181.85641 357.0718,173.0718 352,160 l 13.0718,5.0718 8.78461,-10.92821 L 376,168 l 13.85641,2.14359 -10.92821,8.78461 z"
       inkscape:transform-center-x="1.0944203"
       inkscape:transform-center-y="1.8093829"
       transform="matrix(-0.09361346,-0.53634061,0.46736599,-0.08157456,102.64303,568.31831)" />
    <use
       x="0"
       y="0"
       xlink:href="#path4328"
       inkscape:transform-center-x="0.15819654"
       inkscape:transform-center-y="2.228497"
       id="use4446"
       transform="matrix(-0.56744415,-0.78814231,0.7650645,-0.6996641,235.1934,750.32071)"
       style="stroke-width:1.96759" />
    <path
       sodipodi:type="star"
       style="fill:#ffff00;stroke:#552200;stroke-width:7.87036;stroke-linejoin:round"
       id="use4448"
       inkscape:flatsided="false"
       sodipodi:sides="6"
       sodipodi:cx="368"
       sodipodi:cy="176"
       sodipodi:r1="22.627417"
       sodipodi:r2="11.313708"
       sodipodi:arg1="0.78539816"
       sodipodi:arg2="1.3089969"
       inkscape:rounded="0"
       inkscape:randomized="0"
       d="m 384,192 -13.0718,-5.0718 -8.78461,10.92821 L 360,184 346.14359,181.85641 357.0718,173.0718 352,160 l 13.0718,5.0718 8.78461,-10.92821 L 376,168 l 13.85641,2.14359 -10.92821,8.78461 z"
       inkscape:transform-center-x="1.5942616"
       inkscape:transform-center-y="-1.3892314"
       transform="matrix(-0.24558113,-0.33691424,0.29019456,-0.26182847,186.34284,516.62675)" />
    <path
       sodipodi:type="star"
       style="fill:#ff00ff;stroke:#552200;stroke-width:7.87036;stroke-linejoin:round"
       id="path4450"
       inkscape:flatsided="false"
       sodipodi:sides="6"
       sodipodi:cx="368"
       sodipodi:cy="176"
       sodipodi:r1="22.627417"
       sodipodi:r2="11.313708"
       sodipodi:arg1="0.78539816"
       sodipodi:arg2="1.3089969"
       inkscape:rounded="0"
       inkscape:randomized="0"
       d="m 384,192 -13.0718,-5.0718 -8.78461,10.92821 L 360,184 346.14359,181.85641 357.0718,173.0718 352,160 l 13.0718,5.0718 8.78461,-10.92821 L 376,168 l 13.85641,2.14359 -10.92821,8.78461 z"
       inkscape:transform-center-x="1.9539263"
       inkscape:transform-center-y="-0.80856822"
       transform="matrix(0.51604765,-0.17354987,0.15123097,0.44968275,-102.80171,158.4789)" />
    <use
       x="0"
       y="0"
       xlink:href="#path4328"
       inkscape:transform-center-x="2.2268246"
       inkscape:transform-center-y="0.18021934"
       id="use4452"
       transform="matrix(0.69339174,-0.67997725,0.80719453,0.65060782,-262.69525,316.99871)"
       style="stroke-width:1.96759" />
    <use
       x="0"
       y="0"
       xlink:href="#use4434"
       inkscape:transform-center-x="1.752855"
       inkscape:transform-center-y="0.1356803"
       id="use4454"
       transform="matrix(0.74523191,-0.25062589,0.25437954,0.75639331,-204.47541,135.38775)"
       style="stroke-width:2.48398" />
  </g>
  <g
     inkscape:groupmode="layer"
     id="layer6"
     inkscape:label="Walls"
     style="display:inline">
    <rect
       style="display:inline;fill:#999999;stroke:#2b1100;stroke-width:4;stroke-linejoin:round"
       id="rect3952"
       width="32"
       height="96"
       x="240"
       y="208"
       rx="33.866669"
       ry="33.866669" />
    <rect
       style="display:inline;fill:#999999;stroke:#2b1100;stroke-width:4;stroke-linejoin:round"
       id="rect3954"
       width="96"
       height="32"
       x="208"
       y="240"
       rx="33.866669"
       ry="32" />
    <circle
       style="fill:#999999;stroke:#333333;stroke-width:4.00001;stroke-linejoin:round"
       id="circle4576"
       cx="80"
       cy="248"
       r="22" />
    <circle
       style="fill:#999999;stroke:#333333;stroke-width:4.00001;stroke-linejoin:round"
       id="circle4578"
       cx="432"
       cy="248"
       r="22" />
    <circle
       style="fill:#999999;stroke:#333333;stroke-width:4;stroke-linejoin:round"
       id="circle4580"
       cx="80"
       cy="248"
       r="8" />
    <circle
       style="fill:#999999;stroke:#333333;stroke-width:4;stroke-linejoin:round"
       id="circle4582"
       cx="432"
       cy="248"
       r="8" />
    <circle
       style="fill:#999999;stroke:#333333;stroke-width:4;stroke-linejoin:round"
       id="path4510"
       cx="202"
       cy="88"
       r="8" />
    <circle
       style="fill:#999999;stroke:#333333;stroke-width:4;stroke-linejoin:round"
       id="circle4564"
       cx="256"
       cy="88"
       r="8" />
    <circle
       style="fill:#999999;stroke:#333333;stroke-width:4;stroke-linejoin:round"
       id="circle4566"
       cx="310"
       cy="88"
       r="8" />
    <circle
       style="fill:#999999;stroke:#333333;stroke-width:4;stroke-linejoin:round"
       id="circle4568"
       cx="202"
       cy="424"
       r="8" />
    <circle
       style="fill:#999999;stroke:#333333;stroke-width:4;stroke-linejoin:round"
       id="circle4570"
       cx="256"
       cy="424"
       r="8" />
    <circle
       style="fill:#999999;stroke:#333333;stroke-width:4;stroke-linejoin:round"
       id="circle4572"
       cx="310"
       cy="424"
       r="8" />
  </g>
  <g
     inkscape:groupmode="layer"
     id="layer7"
     inkscape:label="Roof"
     style="display:inline" />
</svg>
