<?xml version="1.0" encoding="UTF-8" standalone="no"?>
<!-- Created with Inkscape (http://www.inkscape.org/) -->

<svg
   width="512"
   height="512"
   viewBox="0 0 512 512"
   version="1.1"
   id="svg5"
   inkscape:version="1.2.1 (9c6d41e, 2022-07-14)"
   xml:space="preserve"
   inkscape:export-filename="menu_container.png"
   inkscape:export-xdpi="12"
   inkscape:export-ydpi="12"
   xmlns:inkscape="http://www.inkscape.org/namespaces/inkscape"
   xmlns:sodipodi="http://sodipodi.sourceforge.net/DTD/sodipodi-0.dtd"
   xmlns:xlink="http://www.w3.org/1999/xlink"
   xmlns="http://www.w3.org/2000/svg"
   xmlns:svg="http://www.w3.org/2000/svg"><sodipodi:namedview
     id="namedview7"
     pagecolor="#505050"
     bordercolor="#eeeeee"
     borderopacity="1"
     inkscape:showpageshadow="false"
     inkscape:pageopacity="0"
     inkscape:pagecheckerboard="false"
     inkscape:deskcolor="#57594a"
     inkscape:document-units="px"
     showgrid="true"><inkscape:grid
       type="xygrid"
       id="grid129"
       spacingx="2.1166666"
       spacingy="2.1166666"
       empspacing="8"
       dotted="false" /></sodipodi:namedview><defs
     id="defs2"><color-profile
       name="sRGB-IEC61966-2.1"
       xlink:href="file:///System/Library/ColorSync/Profiles/sRGB%20Profile.icc"
       id="color-profile2814" /></defs><g
     inkscape:label="Layer 1"
     inkscape:groupmode="layer"
     id="layer1"><g
       id="g219"
       transform="translate(-746.30508)"><g
         class=""
         id="g208"
         style="fill:#30cf30;fill-opacity:1"
         transform="translate(744.08865,-1.25)"><path
           d="M 208,25 C 106.8,25 25,106.8 25,208 25,309.2 106.8,391 208,391 309.2,391 391,309.2 391,208 391,106.8 309.2,25 208,25 Z m 121.3,22.81 c 21,15.91 38.7,35.83 52.1,58.59 49.1,41.7 93.4,100.9 92,179.2 -0.6,34.4 -7.3,75.5 -19.4,110.3 -12.1,34.7 -30.1,62.3 -49.7,71.7 -3.9,1.8 -9.5,2.2 -17.5,0.6 -8,-1.7 -17.9,-5.3 -29.3,-10 -22.7,-9.5 -51.2,-23.4 -84.2,-33.5 -66.2,-20.1 -152,-24.2 -247.5,50.6 l 11.1,14.2 C 128.1,418 205.2,422.8 268,441.9 c 31.4,9.6 59,23 82.6,32.9 11.7,4.9 22.5,8.9 32.6,11 10.1,2.1 20,2.3 28.9,-2 27.5,-13.1 46,-45.1 58.9,-82 C 483.9,364.9 490.8,322.3 491.4,286 493,193.2 435.9,125.5 379.5,81.7 362.3,68.28 345,57.01 329.3,47.81 Z M 208,52 c 16,0 32,4 48,12 0,32 -32,80 -48,80 -16,0 -48,-48 -48,-80 16,-8 32,-12 48,-12 z M 107.4,94.4 c 27.7,16 53.3,67.7 45.4,81.6 -8.1,13.8 -65.6,17.5 -93.33,1.5 2.14,-35.7 18.13,-63.4 47.93,-83.1 z m 201.2,0 c 29.9,19.7 45.9,47.4 48,83.1 -27.7,16 -85.3,12.3 -93.3,-1.5 -8,-13.9 17.6,-65.6 45.3,-81.6 z M 208,167 c 22.5,0 41,18.5 41,41 0,22.5 -18.5,41 -41,41 -22.5,0 -41,-18.5 -41,-41 0,-22.5 18.5,-41 41,-41 z m 0,18 c -12.8,0 -23,10.2 -23,23 0,12.8 10.2,23 23,23 12.8,0 23,-10.2 23,-23 0,-12.8 -10.2,-23 -23,-23 z m -98.1,42.8 c 20.3,0.2 38.6,4.7 42.9,12 7.9,13.9 -17.7,65.6 -45.4,81.6 C 77.57,301.7 61.57,274 59.43,238.3 72.4,230.8 91.95,227.6 109.9,227.8 Z m 196.2,0 c 18,-0.2 37.5,3 50.5,10.5 -2.1,35.7 -18.1,63.4 -48,83.1 -27.7,-16 -53.3,-67.7 -45.3,-81.6 4.3,-7.3 22.5,-11.8 42.8,-12 z M 208,271.7 c 16,0.1 48,48.1 48,80.1 -32,16 -64,16 -96,0 0,-32 32,-80 48,-80.1 z"
           fill="#5c77ae"
           fill-opacity="1"
           id="path206"
           style="fill:#30cf30;fill-opacity:1" /></g></g></g></svg>
